<?xml version="1.0" encoding="utf-8" ?><svg xmlns="http://www.w3.org/2000/svg" xmlns:xlink="http://www.w3.org/1999/xlink" width="4096" height="4096" viewBox="0 0 4096 4096"><path fill="white" d="M0 0L4096 0L4096 4096L0 4096L0 0Z"/><path fill="#D7D7D8" d="M2046.26 1242.65C2268.43 1080.06 2582.91 954.057 2863.01 994.731C2979.81 1011.69 3100.21 1075.56 3186.75 1154.83C3236.8 1200.67 3278.48 1253.42 3317.87 1308.24C3319.83 1310.97 3322.82 1311.15 3325.75 1311.26L3510.89 1332.71C3513.75 1343.18 3525.52 1390.79 3528.65 1398.36L3528.56 1402.96C3530.36 1409.93 3528.99 1432.08 3526.95 1437.54C3524.13 1464.57 3517.34 1507.73 3516.27 1532.15C3554.73 1550.48 3671.68 1624.06 3698.53 1655.98C3723.18 1663.14 3799.8 1740.41 3814.27 1766.01C3819.74 1775.57 3823.37 1786.07 3824.96 1796.97C3828.33 1818.53 3828.19 1950.27 3822.66 1967.72C3816.92 1985.84 3804.85 2000.95 3796.51 2017.84C3805.74 2032.49 3809.58 2040.01 3814.88 2056.85C3817.74 2073.13 3815.26 2122.19 3820.57 2130.3C3877.14 2200.94 3858.79 2241.45 3855.82 2325.64C3854.18 2372.16 3853.62 2422.1 3848.4 2468.09C3847.66 2474.97 3846.58 2481.81 3845.16 2488.59C3844.11 2495.69 3834.49 2527.91 3830.91 2533.39C3822.58 2538.72 3822.61 2539.05 3819.64 2550.35C3818.97 2553.99 3819.27 2554.55 3817.63 2557.7C3794.92 2566.27 3812.52 2574.25 3795.62 2588.76L3786.02 2586.68C3775.58 2598.14 3784.56 2601.74 3774.6 2615.26L3757.62 2616.82L3753.2 2618.84C3751.04 2629.33 3752.24 2636.13 3746.93 2644.05L3731.42 2644.95L3724.54 2647.07C3719.49 2656.91 3722.65 2661.91 3715.34 2671.31C3707.05 2675.98 3699.92 2675 3690.34 2674.14L3687.19 2674.12C3686.35 2682.77 3698.93 2718.51 3702.31 2728.9C3734.16 2826.75 3698.49 2882.87 3629.23 2950.06C3611.93 2957.37 3571.02 3000.63 3552.84 3014.25C3244.01 3245.62 2838.39 3141.52 2482.49 3136.78C2248.4 3129.39 2014.77 3163.53 1780.84 3139.85C1631.13 3124.7 1484.22 3147.09 1334.83 3145.07C1309.01 3144.72 1281.81 3144.25 1256.09 3145.37C1236.43 3146.99 1218.11 3146.64 1198.43 3145.5C1042.94 3136.52 885.514 3140.46 731.894 3111.13C706.875 3106.35 681.421 3099.7 656.71 3093.57C646.858 3090.92 640.719 3090.52 631.765 3088.67C597.449 3080.7 563.755 3055.35 538.232 3032.97C468.736 2972.03 489.571 2898.92 532.673 2830.55C542.674 2814.68 541.714 2798.99 557.381 2782.61L574.169 2797.52C574.568 2794.96 560.317 2772.37 557.92 2768.35L559.286 2765.62L555.594 2758.05L553.232 2756.96C541.785 2751.51 523.201 2732.86 525.929 2722.32C532.177 2698.21 523.411 2690.19 512.137 2666.5C496.002 2666.63 479.865 2666.51 463.734 2666.16C460.229 2656.57 458.292 2646.85 455.989 2636.9C463.902 2613.86 470.06 2596.12 483.359 2575.77C480.552 2556.09 477.048 2543.26 466.629 2525.99C460.101 2515.17 459.974 2503.37 458.91 2490.91C471.353 2473.2 469.469 2469 463.012 2449.07C454.561 2445.5 446.156 2441.82 437.798 2438.03C436.042 2405.3 451.979 2365.91 476.686 2344.17C482.778 2325.02 489.109 2318.16 472.083 2304.64C466.236 2301.41 451.742 2289.82 445.69 2285.19C434.886 2278.37 427.72 2271.87 415.327 2272.61C407.176 2277.39 409.519 2276.42 404.276 2286.06C399.965 2296.91 399.363 2295.79 387.839 2297.89C370.438 2302.64 354.807 2478.66 314.645 2498.58C296.805 2507.43 291.313 2514.4 262.135 2511.24C244.937 2509.37 229.323 2496.64 219.525 2484.05C206.744 2467.63 201.093 2450.42 201.553 2429.95C202.375 2393.3 225.343 2362.02 227.552 2326.12C239.666 2129.3 251.561 1932.12 271.576 1735.92C272.979 1722.17 277.208 1689.13 283.462 1676.99C297.398 1649.93 348.02 1602.17 376.427 1591.39C396.179 1583.9 433.195 1579.7 448.747 1563.61C462.572 1549.3 476.612 1526.5 489.498 1510.97C513.09 1482.55 538.713 1459.14 567.267 1436.24C578.657 1389.79 585.348 1363.32 617.961 1328.62C636.004 1309.15 656.83 1292.47 679.761 1279.1C745.879 1241.17 878.75 1207.61 956.564 1205.49C1060.6 1182.32 1161.4 1147.12 1263.37 1116.4C1435.46 1064.55 1590.61 1066.35 1758.05 1134.09C1810.33 1155.24 1861.12 1182.25 1912.62 1205.96C1950.7 1223.5 1996.26 1234.83 2033.8 1250.8C2020.58 1261.22 1954.91 1308.64 1948.86 1316.89C1938.45 1331.57 1913.82 1350.08 1898.89 1360.24C1895.39 1360.61 1895.39 1360.86 1891.95 1360.43C1890.64 1366.91 1853.94 1399.75 1846.6 1406.67C1839.13 1415.94 1820.12 1452.37 1815.33 1463.66C1823.29 1488.45 1856.2 1468.42 1860.44 1453.86L1859.98 1448.66L1859.41 1446.68C1880.83 1421.65 1924.44 1378.97 1948.99 1353.88C1943.41 1353.56 1942.48 1353.71 1937.2 1352.12L1935.69 1348.47C1939.28 1338.41 1951.33 1332.9 1956.6 1321.27C1967.58 1296.94 2021.48 1272.69 2046.26 1242.65Z"/><path fill="#B8B8B9" d="M2046.26 1242.65C2268.43 1080.06 2582.91 954.057 2863.01 994.731C2979.81 1011.69 3100.21 1075.56 3186.75 1154.83C3236.8 1200.67 3278.48 1253.42 3317.87 1308.24C3319.83 1310.97 3322.82 1311.15 3325.75 1311.26L3510.89 1332.71C3513.75 1343.18 3525.52 1390.79 3528.65 1398.36L3528.56 1402.96C3530.36 1409.93 3528.99 1432.08 3526.95 1437.54C3524.13 1464.57 3517.34 1507.73 3516.27 1532.15C3554.73 1550.48 3671.68 1624.06 3698.53 1655.98C3725.44 1697.2 3740.13 1750.88 3688.84 1776.37C3603.35 1818.84 3461.86 1830.97 3369.1 1835.53C3314.25 1838.03 3247.23 1837.27 3192.89 1835.51C3146.93 1833.25 3100.75 1828.26 3055.12 1822.47C3043.29 1820.97 3011.34 1817.84 3001.09 1814.52C2972.18 1812.92 2922.59 1804.84 2892.38 1800.9L2889.99 1800.48C2829.06 1795.85 2765.56 1781.11 2700.21 1777.49C2631.94 1774.03 2561.69 1780.15 2496.31 1775.56C2360.32 1766.02 2247.62 1776.2 2113.73 1791.24C2110.24 1789.13 2108.67 1788.04 2104.18 1788.34C2066.71 1790.79 2028.09 1796.19 1990.53 1795.79C1947.53 1795.33 1906.51 1786.47 1865.68 1773.54C1836.26 1763.95 1807.36 1752.86 1779.08 1740.32C1768.98 1735.87 1739.85 1720.25 1730.67 1721.71L1729.55 1720.96C1709.93 1713.36 1676.73 1695.43 1657.8 1685.16C1651.39 1683.64 1651.14 1682.78 1645.42 1679.3C1631.13 1672.5 1615.46 1665.47 1602.04 1657.32C1595.68 1656.79 1517.7 1622.11 1505.62 1617.38C1465.89 1601.45 1425.4 1587.49 1384.29 1575.56C1202.93 1523.56 1043.99 1534.1 863.163 1582.79C771.461 1607.49 584.021 1673.78 499.644 1618.92C496.417 1611.99 497.167 1615.66 498.293 1607.37C513.358 1583.47 566.723 1582.57 584.259 1571.23C631.187 1540.89 660.827 1474.7 701.437 1433.76C722.218 1412.8 756.091 1392.51 771.579 1369.38C778.481 1359.07 761.735 1336.21 768.41 1320.15C790.357 1268.21 848.324 1245.51 897.221 1226.76C916.188 1219.49 938.819 1214.54 956.564 1205.49C1060.6 1182.32 1161.4 1147.12 1263.37 1116.4C1435.46 1064.55 1590.61 1066.35 1758.05 1134.09C1810.33 1155.24 1861.12 1182.25 1912.62 1205.96C1950.7 1223.5 1996.26 1234.83 2033.8 1250.8C2020.58 1261.22 1954.91 1308.64 1948.86 1316.89C1938.45 1331.57 1913.82 1350.08 1898.89 1360.24C1895.39 1360.61 1895.39 1360.86 1891.95 1360.43C1890.64 1366.91 1853.94 1399.75 1846.6 1406.67C1839.13 1415.94 1820.12 1452.37 1815.33 1463.66C1823.29 1488.45 1856.2 1468.42 1860.44 1453.86L1859.98 1448.66L1859.41 1446.68C1880.83 1421.65 1924.44 1378.97 1948.99 1353.88C1943.41 1353.56 1942.48 1353.71 1937.2 1352.12L1935.69 1348.47C1939.28 1338.41 1951.33 1332.9 1956.6 1321.27C1967.58 1296.94 2021.48 1272.69 2046.26 1242.65Z"/><path fill="#100F10" d="M2046.26 1242.65C2268.43 1080.06 2582.91 954.057 2863.01 994.731C2979.81 1011.69 3100.21 1075.56 3186.75 1154.83C3236.8 1200.67 3278.48 1253.42 3317.87 1308.24C3319.83 1310.97 3322.82 1311.15 3325.75 1311.26L3510.89 1332.71C3513.75 1343.18 3525.52 1390.79 3528.65 1398.36L3528.56 1402.96C3530.36 1409.93 3528.99 1432.08 3526.95 1437.54C3524.13 1464.57 3517.34 1507.73 3516.27 1532.15L3514.92 1542.43C3521.39 1561.34 3578.2 1581.48 3552.49 1612.4C3493.04 1647.46 3122.76 1620.04 3035.19 1616.88C2877.51 1611.2 2702.77 1600.79 2544.01 1587.4C2437.33 1578.41 2327.31 1563.4 2220.49 1553.02C2092.04 1542.12 1962.55 1535.41 1833.9 1526.08C1798.02 1498.42 1789.16 1480.66 1814.79 1438.62L1818.64 1440.64C1820.33 1452.22 1813.76 1454 1815.33 1463.66C1823.29 1488.45 1856.2 1468.42 1860.44 1453.86L1859.98 1448.66L1859.41 1446.68C1880.83 1421.65 1924.44 1378.97 1948.99 1353.88C1943.41 1353.56 1942.48 1353.71 1937.2 1352.12L1935.69 1348.47C1939.28 1338.41 1951.33 1332.9 1956.6 1321.27C1967.58 1296.94 2021.48 1272.69 2046.26 1242.65Z"/><path fill="#5F6063" d="M2046.26 1242.65C2268.43 1080.06 2582.91 954.057 2863.01 994.731C2979.81 1011.69 3100.21 1075.56 3186.75 1154.83C3236.8 1200.67 3278.48 1253.42 3317.87 1308.24C3319.83 1310.97 3322.82 1311.15 3325.75 1311.26L3510.89 1332.71C3513.75 1343.18 3525.52 1390.79 3528.65 1398.36C3503.19 1393.33 3458.72 1390.45 3431.74 1388.02C3397.71 1384.95 3357.76 1379.78 3324.19 1378.09C3320.37 1377.27 3317.74 1376.46 3314.01 1375.3L3314.58 1372.59C3320.76 1369.31 3326.91 1365.98 3333.04 1362.6C3311.06 1337.83 3295.71 1310.07 3275.47 1283.68C3247.69 1247.44 3216.39 1215.31 3185.38 1182.06C3153.6 1146.26 3115.91 1123.87 3077.15 1098.34C2939.68 1007.78 2760.96 992.928 2602.85 1026.48C2575.37 1032.31 2546.13 1035.89 2518.74 1043.35C2351.9 1088.73 2193.25 1166.49 2054.7 1269.82C2013.68 1300.38 1986.31 1317.96 1948.99 1353.88C1943.41 1353.56 1942.48 1353.71 1937.2 1352.12L1935.69 1348.47C1939.28 1338.41 1951.33 1332.9 1956.6 1321.27C1967.58 1296.94 2021.48 1272.69 2046.26 1242.65Z"/><path fill="#8A8A8B" d="M2046.26 1242.65C2268.43 1080.06 2582.91 954.057 2863.01 994.731C2979.81 1011.69 3100.21 1075.56 3186.75 1154.83C3236.8 1200.67 3278.48 1253.42 3317.87 1308.24C3319.83 1310.97 3322.82 1311.15 3325.75 1311.26C3325.48 1315.95 3324.94 1313.92 3326.65 1317.2C3332.67 1328.52 3337.42 1340.47 3340.79 1352.84C3285.2 1279.41 3224.18 1191.92 3148.78 1135.15C3135.99 1125.53 3127.94 1113.02 3114.22 1105.57C3067.92 1078.69 3021.5 1050.07 2972.08 1029.09C2944 1019.29 2914.68 1016.59 2886.49 1006.87C2875.44 1003.06 2850.6 1004.35 2840.28 1000.91C2819.16 993.486 2799.74 995.196 2777.8 994.888C2537.52 991.513 2299.69 1090.35 2099.89 1217.62C2067.58 1238.2 2033.31 1272.23 1998.83 1291.94C1986.22 1299.15 1970.16 1316.62 1956.6 1321.27C1967.58 1296.94 2021.48 1272.69 2046.26 1242.65Z"/><path fill="#363537" d="M1948.99 1353.88C1986.31 1317.96 2013.68 1300.38 2054.7 1269.82C2193.25 1166.49 2351.9 1088.73 2518.74 1043.35C2546.13 1035.89 2575.37 1032.31 2602.85 1026.48C2760.96 992.928 2939.68 1007.78 3077.15 1098.34C3115.91 1123.87 3153.6 1146.26 3185.38 1182.06C3216.39 1215.31 3247.69 1247.44 3275.47 1283.68C3295.71 1310.07 3311.06 1337.83 3333.04 1362.6C3326.91 1365.98 3320.76 1369.31 3314.58 1372.59L3314.01 1375.3C3317.74 1376.46 3320.37 1377.27 3324.19 1378.09L3307.91 1378.09C3304.79 1381.58 3305.39 1380.74 3303.12 1384.51C3300.11 1378.08 3306.91 1376.83 3302.21 1373.68C3261.45 1346.32 3224.97 1321.72 3192.45 1283.41C3174.79 1262.6 3156.83 1244.84 3164.64 1215.43C3165.55 1211.95 3165.88 1201.69 3163.36 1198.34C3124.43 1146.59 3049.91 1104 2992.89 1075.15C2974.76 1069.5 2956.09 1061.38 2938.17 1055.66C2911.03 1047 2875.72 1044.52 2847.55 1041.75C2805.36 1038.83 2763.55 1031.21 2721.57 1037.59C2661.84 1046.66 2581.33 1049.64 2524.19 1067.57C2471.27 1084.18 2395.38 1108.66 2345.33 1130.82C2229.52 1183.45 2119.82 1248.59 2018.18 1325.06C1998.99 1339.57 1905.86 1424.31 1891.4 1426.98C1880.33 1433.53 1867.48 1444.67 1859.98 1448.66L1859.41 1446.68C1880.83 1421.65 1924.44 1378.97 1948.99 1353.88Z"/><path fill="#444445" d="M3526.95 1437.54L3525.29 1433.74C3512.61 1426.54 3356.4 1415.85 3331.89 1413.93C3321.89 1413.15 3310.44 1413.02 3303.06 1404.39C3302.05 1399.73 3301 1395.86 3303.75 1391.37C3310.32 1380.63 3498.81 1411.38 3526.65 1408.28L3528.56 1402.96C3530.36 1409.93 3528.99 1432.08 3526.95 1437.54Z"/><defs><linearGradient id="gradient_0" gradientUnits="userSpaceOnUse" x1="3459.9834" y1="1594.2599" x2="3541.2407" y2="1564.5618"><stop offset="0" stop-color="#201F21"/><stop offset="1" stop-color="#434243"/></linearGradient></defs><path fill="url(#gradient_0)" d="M3552.49 1612.4C3538.29 1601.24 3459.49 1557.35 3445.21 1561.13C3444.78 1573.11 3443.84 1585.75 3429.42 1589.47C3423.15 1584.07 3419.05 1564.13 3421.71 1554.58C3440.05 1539.35 3505.88 1567.2 3514.92 1542.43C3521.39 1561.34 3578.2 1581.48 3552.49 1612.4Z"/><path fill="#302C2C" d="M1859.98 1448.66C1867.48 1444.67 1880.33 1433.53 1891.4 1426.98L1892.59 1432.97C1883.12 1445.15 1882.55 1445.3 1868.11 1450.88L1871.24 1447.96C1865.15 1449.75 1865.49 1449.86 1860.44 1453.86L1859.98 1448.66Z"/><path fill="#363537" d="M2742.59 1105.44C2750.12 1108.4 2792.75 1104.64 2805.23 1105.2C2838.77 1106.73 2873.38 1112.14 2901.36 1132.44C2921.05 1146.72 2894.39 1172.02 2906.29 1187.87C2918.71 1204.4 2941.65 1212.39 2950.22 1232.63C2980.63 1310.09 2822.77 1291.65 2790.56 1275.85C2779.35 1272.52 2767.38 1267.94 2757.33 1261.97C2733.24 1247.65 2735.26 1233.08 2728.07 1209.11C2719.2 1179.57 2611.49 1209.7 2575.93 1188.67C2570.19 1178.1 2566.6 1179.14 2566.65 1170.78C2580.23 1148.1 2666.42 1122.41 2693.46 1113.37C2703.6 1109.99 2725.34 1113.31 2742.59 1105.44Z"/><path fill="#444445" d="M3477.06 1585.52C3483.99 1586.87 3495.24 1585.01 3500 1591.24C3495.47 1595.67 3495.92 1594.63 3489.25 1596.7C3479.55 1589.25 3479.49 1591.49 3465.49 1590.28C3468.76 1586.28 3470.72 1587.07 3477.06 1585.52Z"/><path fill="#8A8A8B" d="M914.107 1478.71C882.247 1455.42 951.213 1389.43 968.897 1370.1C998.432 1337.82 1089.48 1332.43 1131.55 1328.98C1402.17 1306.76 1677.56 1308.5 1948.86 1316.89C1938.45 1331.57 1913.82 1350.08 1898.89 1360.24C1895.39 1360.61 1895.39 1360.86 1891.95 1360.43C1890.64 1366.91 1853.94 1399.75 1846.6 1406.67C1839.13 1415.94 1820.12 1452.37 1815.33 1463.66C1813.76 1454 1820.33 1452.22 1818.64 1440.64L1814.79 1438.62C1789.16 1480.66 1798.02 1498.42 1833.9 1526.08C1822.19 1526.02 1812.08 1526.31 1800.47 1524.16C1785.37 1523.56 1745.36 1522.76 1732.76 1520.08L1694.17 1520.3C1666.43 1521.87 1612.77 1517.45 1581.82 1516.73C1542.83 1515.82 1489.7 1517.17 1452.84 1513.4C1401.26 1508.12 1360.93 1496.23 1306.23 1497.57L1297.38 1493.62C1290.59 1497.46 1278.19 1495.93 1269.76 1495.55C1245.78 1494.56 1220.25 1494.71 1196.13 1494.33C1164.49 1496.45 1132.86 1498.79 1101.25 1501.34C1085.22 1503.1 1010.59 1513.67 1001.78 1512.9C992.827 1508.86 962.163 1502.12 952.114 1499.79C937.631 1493.86 925.968 1489.38 914.107 1478.71Z"/><defs><linearGradient id="gradient_1" gradientUnits="userSpaceOnUse" x1="1537.6832" y1="1355.8739" x2="1540.5768" y2="1518.761"><stop offset="0" stop-color="#6D6D6E"/><stop offset="1" stop-color="#888"/></linearGradient></defs><path fill="url(#gradient_1)" d="M1660.92 1349.96C1694.12 1352.24 1722.15 1353.98 1755.53 1355.24L1757.64 1361.67C1764.12 1364.93 1764.38 1364.59 1768.78 1370.72C1770.37 1379.65 1766.66 1385.4 1762.6 1393.58C1768.67 1402.54 1782.29 1399.55 1792.91 1401.29L1823.86 1402.06C1832.59 1401.75 1839.46 1400.95 1846.6 1406.67C1839.13 1415.94 1820.12 1452.37 1815.33 1463.66C1813.76 1454 1820.33 1452.22 1818.64 1440.64L1814.79 1438.62C1789.16 1480.66 1798.02 1498.42 1833.9 1526.08C1822.19 1526.02 1812.08 1526.31 1800.47 1524.16C1785.37 1523.56 1745.36 1522.76 1732.76 1520.08L1694.17 1520.3C1666.43 1521.87 1612.77 1517.45 1581.82 1516.73C1542.83 1515.82 1489.7 1517.17 1452.84 1513.4C1401.26 1508.12 1360.93 1496.23 1306.23 1497.57L1297.38 1493.62C1290.59 1497.46 1278.19 1495.93 1269.76 1495.55L1278.29 1488.58L1277.63 1486.37C1297.04 1456.86 1323.94 1424.12 1324.59 1390.14C1337.04 1390.45 1343.91 1390.78 1356.38 1392.52C1359.15 1387.31 1362.01 1382.14 1364.98 1377.03C1373.31 1362.87 1379.31 1360.87 1394.51 1357.06C1409.21 1354.63 1435.19 1354.79 1450.93 1354.45C1491.42 1350.69 1639.69 1361.97 1660.92 1349.96Z"/><path fill="#444445" d="M1728.01 1441.53C1751.85 1417.59 1746.01 1417.14 1760.92 1395.92L1762.6 1393.58C1768.67 1402.54 1782.29 1399.55 1792.91 1401.29L1823.86 1402.06C1832.59 1401.75 1839.46 1400.95 1846.6 1406.67C1839.13 1415.94 1820.12 1452.37 1815.33 1463.66C1813.76 1454 1820.33 1452.22 1818.64 1440.64L1814.79 1438.62C1789.16 1480.66 1798.02 1498.42 1833.9 1526.08C1822.19 1526.02 1812.08 1526.31 1800.47 1524.16C1785.37 1523.56 1745.36 1522.76 1732.76 1520.08L1694.17 1520.3C1715.33 1504.62 1716.12 1493.21 1725.13 1469.2C1725.88 1460.14 1727.05 1450.62 1728.01 1441.53Z"/><path fill="#1A1A1A" d="M1728.01 1441.53C1751.85 1417.59 1746.01 1417.14 1760.92 1395.92L1762.6 1393.58C1768.67 1402.54 1782.29 1399.55 1792.91 1401.29L1823.86 1402.06C1832.59 1401.75 1839.46 1400.95 1846.6 1406.67C1839.13 1415.94 1820.12 1452.37 1815.33 1463.66C1813.76 1454 1820.33 1452.22 1818.64 1440.64L1814.79 1438.62C1818.1 1433.67 1819.9 1431.59 1821.66 1425.79C1811.18 1424.8 1780.52 1437.87 1771.12 1443.21C1767.34 1445.36 1770.48 1457.07 1771.38 1460.84C1768.84 1461.75 1759.68 1461.47 1755.41 1462.96C1749.44 1465.27 1745.07 1466.46 1739.77 1469.95L1736.87 1466.7C1719.11 1479.75 1725.62 1502.85 1732.76 1520.08L1694.17 1520.3C1715.33 1504.62 1716.12 1493.21 1725.13 1469.2C1725.88 1460.14 1727.05 1450.62 1728.01 1441.53Z"/><path fill="#302C2C" d="M1728.01 1441.53C1751.85 1417.59 1746.01 1417.14 1760.92 1395.92L1762.6 1393.58C1768.67 1402.54 1782.29 1399.55 1792.91 1401.29C1782.94 1401.85 1772.13 1409.16 1768.09 1418.25C1771.13 1423.36 1769.03 1421.28 1775.72 1423.37L1773.07 1426.33C1749.51 1452.98 1762.25 1448.19 1725.13 1469.2C1725.88 1460.14 1727.05 1450.62 1728.01 1441.53Z"/><path fill="#363537" d="M1792.91 1401.29L1823.86 1402.06L1824.44 1406.09C1809.62 1414.1 1791.14 1416.01 1775.72 1423.37C1769.03 1421.28 1771.13 1423.36 1768.09 1418.25C1772.13 1409.16 1782.94 1401.85 1792.91 1401.29Z"/><path fill="#100F10" d="M1755.41 1462.96C1766.75 1463.83 1778.23 1461.43 1784.16 1471.65L1788.37 1471.11L1788.94 1473.98C1775.84 1486.03 1765.49 1473.87 1755.2 1480.74C1755.22 1494.5 1788.28 1520.22 1800.47 1524.16C1785.37 1523.56 1745.36 1522.76 1732.76 1520.08C1725.62 1502.85 1719.11 1479.75 1736.87 1466.7L1739.77 1469.95C1745.07 1466.46 1749.44 1465.27 1755.41 1462.96Z"/><path fill="#8A8A8B" d="M1755.41 1462.96C1766.75 1463.83 1778.23 1461.43 1784.16 1471.65C1773.85 1474.56 1750.2 1474.89 1739.77 1469.95C1745.07 1466.46 1749.44 1465.27 1755.41 1462.96Z"/><path fill="#5F6063" d="M1356.38 1392.52C1359.15 1387.31 1362.01 1382.14 1364.98 1377.03C1373.31 1362.87 1379.31 1360.87 1394.51 1357.06C1367.96 1384.29 1345.43 1436.94 1324.14 1469.79C1319.39 1477.11 1311.73 1491.71 1306.23 1497.57L1297.38 1493.62C1290.59 1497.46 1278.19 1495.93 1269.76 1495.55L1278.29 1488.58L1277.63 1486.37C1297.04 1456.86 1323.94 1424.12 1324.59 1390.14C1337.04 1390.45 1343.91 1390.78 1356.38 1392.52Z"/><path fill="#302C2C" d="M1278.29 1488.58C1279.25 1487.76 1280.2 1486.93 1281.16 1486.11C1291.71 1480.68 1321.22 1418.34 1327.94 1417.57C1331.59 1423.31 1331.36 1424.96 1332.74 1431.78C1322.97 1452.58 1305.97 1475.53 1297.38 1493.62C1290.59 1497.46 1278.19 1495.93 1269.76 1495.55L1278.29 1488.58Z"/><path fill="#1A1A1A" d="M1660.92 1349.96C1694.12 1352.24 1722.15 1353.98 1755.53 1355.24L1757.64 1361.67C1724.9 1356.66 1689.96 1357.41 1656.73 1357.17L1524.24 1356.31C1504.34 1356.19 1469.25 1357.07 1450.93 1354.45C1491.42 1350.69 1639.69 1361.97 1660.92 1349.96Z"/><path fill="#9D9D9D" d="M1443.68 1403.93C1512.24 1403.71 1580.8 1403.87 1649.36 1404.42L1632.82 1442.24C1629 1450.97 1623.24 1468.32 1615.8 1471.23C1545.45 1472.64 1475.88 1468.76 1406.86 1470.25C1420.22 1448.56 1430.1 1425.45 1443.68 1403.93Z"/><path fill="#444445" d="M1733.9 1422.08L1735.08 1424.04C1731.95 1428.21 1722.47 1437.2 1721.66 1440.01C1712.93 1470.44 1721.66 1486.69 1696.02 1512.24L1695.22 1508.85C1713.37 1482.96 1713.65 1468.31 1717.09 1437.38C1723.25 1432.44 1728.22 1427.54 1733.9 1422.08Z"/><path fill="#8A8A8B" d="M1443.74 1499.06C1455.2 1497.75 1489.63 1495.77 1498.93 1500.42C1488.07 1503.32 1454.67 1504.66 1443.74 1499.06Z"/><path fill="#8A8A8B" d="M1625.93 1498.94L1627.05 1499.47L1627.17 1502.14C1620.96 1504.42 1594.72 1503.8 1586.42 1503.83L1584.76 1501.11C1591.02 1498.53 1617.45 1499.04 1625.93 1498.94Z"/><path fill="#5F6063" d="M1638.77 1389.02C1650 1388.81 1674.87 1386.9 1683.51 1391.01C1673.13 1392.51 1647.51 1394.49 1638.77 1389.02Z"/><path fill="#444445" d="M1525.7 1388.89C1533.85 1387.45 1534.83 1387.27 1542.99 1387.86L1545.58 1390.91C1538 1392.68 1532.73 1391.24 1525.7 1388.89Z"/><path fill="#CD6F71" d="M1063.09 1372.96C1065.8 1369.02 1068.54 1364.7 1071.98 1361.37C1089.53 1344.41 1199.4 1355.31 1228.48 1355.15C1248.57 1355.04 1307.49 1351.92 1322.22 1361.09C1324.71 1369.99 1324.1 1375.35 1323.97 1384.44L1324.59 1390.14C1323.94 1424.12 1297.04 1456.86 1277.63 1486.37L1278.29 1488.58L1269.76 1495.55C1245.78 1494.56 1220.25 1494.71 1196.13 1494.33C1164.49 1496.45 1132.86 1498.79 1101.25 1501.34C1085.22 1503.1 1010.59 1513.67 1001.78 1512.9C992.827 1508.86 962.163 1502.12 952.114 1499.79C968.565 1487.97 995.076 1442.7 1022.89 1418.86C1032.71 1412.26 1047.76 1390.66 1055.56 1380.21C1057.32 1379.2 1061.42 1374.68 1063.09 1372.96Z"/><path fill="#AB2C2F" d="M1322.22 1361.09C1324.71 1369.99 1324.1 1375.35 1323.97 1384.44L1324.59 1390.14C1323.94 1424.12 1297.04 1456.86 1277.63 1486.37L1278.29 1488.58L1269.76 1495.55C1245.78 1494.56 1220.25 1494.71 1196.13 1494.33C1164.49 1496.45 1132.86 1498.79 1101.25 1501.34C1085.22 1503.1 1010.59 1513.67 1001.78 1512.9C992.827 1508.86 962.163 1502.12 952.114 1499.79C968.565 1487.97 995.076 1442.7 1022.89 1418.86L1018.39 1429.98C1021.71 1445.47 1045.46 1440.3 1058.65 1441.01C1127.25 1444.67 1200.48 1439.68 1268.61 1445.42C1286.97 1419.29 1305.82 1388.44 1322.22 1361.09Z"/><path fill="#444445" d="M952.114 1499.79C968.565 1487.97 995.076 1442.7 1022.89 1418.86L1018.39 1429.98C1011.21 1442.78 1016.64 1458.1 1012.47 1471.13C1007 1478.06 1007.17 1475.81 1006.25 1483.38C1010.15 1486.51 1011.13 1486.95 1015.59 1489.31L1015.58 1491.26C1003.76 1490.79 1003.43 1485.97 996.549 1489.18C993.526 1498.35 997.462 1503.8 1001.78 1512.9C992.827 1508.86 962.163 1502.12 952.114 1499.79Z"/><defs><linearGradient id="gradient_2" gradientUnits="userSpaceOnUse" x1="1042.7292" y1="1514.4253" x2="1048.6519" y2="1486.0999"><stop offset="0" stop-color="#131213"/><stop offset="1" stop-color="#2D3233"/></linearGradient></defs><path fill="url(#gradient_2)" d="M1012.47 1471.13C1014.63 1478.7 1015.23 1484.88 1021.13 1489.59L1027.2 1490.12C1047.23 1493.05 1066.33 1490.08 1082.84 1492.07C1089.29 1493.1 1092.05 1493.47 1098.41 1495.57C1099.35 1497.37 1100.59 1499.49 1101.25 1501.34C1085.22 1503.1 1010.59 1513.67 1001.78 1512.9C997.462 1503.8 993.526 1498.35 996.549 1489.18C1003.43 1485.97 1003.76 1490.79 1015.58 1491.26L1015.59 1489.31C1011.13 1486.95 1010.15 1486.51 1006.25 1483.38C1007.17 1475.81 1007 1478.06 1012.47 1471.13Z"/><path fill="#97292D" d="M1027.2 1490.12C1044.53 1487.97 1078.32 1488.99 1096.82 1489.07C1142.06 1489.71 1187.31 1489.6 1232.54 1488.75C1243.62 1488.44 1268.83 1488.65 1277.63 1486.37L1278.29 1488.58L1269.76 1495.55C1245.78 1494.56 1220.25 1494.71 1196.13 1494.33C1164.49 1496.45 1132.86 1498.79 1101.25 1501.34C1100.59 1499.49 1099.35 1497.37 1098.41 1495.57C1092.05 1493.47 1089.29 1493.1 1082.84 1492.07C1066.33 1490.08 1047.23 1493.05 1027.2 1490.12Z"/><path fill="#302C2C" d="M1082.84 1492.07C1105.31 1491.65 1175.64 1489.86 1196.13 1494.33C1164.49 1496.45 1132.86 1498.79 1101.25 1501.34C1100.59 1499.49 1099.35 1497.37 1098.41 1495.57C1092.05 1493.47 1089.29 1493.1 1082.84 1492.07Z"/><path fill="#C86C6C" d="M1152.33 1392.01L1151.67 1388.48C1159.41 1382.57 1200.54 1384.8 1207.21 1391.79C1204.29 1393.87 1205.67 1393.44 1203.36 1393.84L1199.4 1400.06C1196.21 1403.48 1198 1402.44 1194.35 1403.68L1193.83 1407.51L1193.99 1413.83C1183.81 1411.4 1182.53 1410.66 1172.44 1411.88C1164.65 1412.52 1164.67 1410.96 1159.51 1406.61C1153.49 1408.84 1155.91 1409.27 1151.21 1407.82C1143.7 1405.45 1144.18 1406.96 1140.54 1401.85C1146 1396.67 1145.87 1398.08 1154.41 1396.02L1152.33 1392.01Z"/><path fill="#AB2C2F" d="M1152.33 1392.01L1151.67 1388.48C1159.41 1382.57 1200.54 1384.8 1207.21 1391.79C1204.29 1393.87 1205.67 1393.44 1203.36 1393.84L1199.4 1400.06C1188.61 1394.98 1166.6 1395.92 1154.41 1396.02L1152.33 1392.01Z"/><path fill="#C86C6C" d="M1152.33 1392.01C1172.16 1390.28 1183.87 1389.45 1203.36 1393.84L1199.4 1400.06C1188.61 1394.98 1166.6 1395.92 1154.41 1396.02L1152.33 1392.01Z"/><path fill="#AB2C2F" d="M1154.41 1396.02C1166.6 1395.92 1188.61 1394.98 1199.4 1400.06C1196.21 1403.48 1198 1402.44 1194.35 1403.68C1179.02 1400.17 1165.43 1399.29 1149.97 1401.84C1149.75 1405.96 1149.38 1403.96 1151.21 1407.82C1143.7 1405.45 1144.18 1406.96 1140.54 1401.85C1146 1396.67 1145.87 1398.08 1154.41 1396.02Z"/><path fill="#AB2C2F" d="M1159.51 1406.61C1171.15 1406.69 1182.2 1406.64 1193.83 1407.51L1193.99 1413.83C1183.81 1411.4 1182.53 1410.66 1172.44 1411.88C1164.65 1412.52 1164.67 1410.96 1159.51 1406.61Z"/><path fill="#C86C6C" d="M1186.56 1371.52C1198.47 1368.71 1203.69 1366.98 1215.61 1369.42L1219.08 1372.85C1215.89 1390.17 1193.55 1386.33 1187.71 1378.76L1188.92 1373.86L1186.56 1371.52Z"/><path fill="#AB2C2F" d="M1127.54 1412.99C1140.86 1411.18 1157.95 1408.72 1168.82 1417.39C1158.38 1418.77 1136.93 1418.14 1127.54 1412.99Z"/><path fill="#AB2C2F" d="M1186.56 1371.52L1188.92 1373.86L1187.71 1378.76C1174.24 1375.33 1175.06 1380.12 1160.51 1375.74L1164.77 1375.98L1166.32 1373.71C1171.75 1371.31 1180.27 1371.7 1186.56 1371.52Z"/><path fill="#100F10" d="M1025.73 1380.54C1039.03 1377.34 1049.59 1375.22 1063.09 1372.96C1061.42 1374.68 1057.32 1379.2 1055.56 1380.21C1047.76 1390.66 1032.71 1412.26 1022.89 1418.86C995.076 1442.7 968.565 1487.97 952.114 1499.79C937.631 1493.86 925.968 1489.38 914.107 1478.71C947.119 1433.27 970.544 1395.4 1025.73 1380.54Z"/><path fill="#100F10" d="M1345.14 1345.96C1439.52 1342.37 1567.58 1338.05 1660.92 1349.96C1639.69 1361.97 1491.42 1350.69 1450.93 1354.45C1435.19 1354.79 1409.21 1354.63 1394.51 1357.06C1379.31 1360.87 1373.31 1362.87 1364.98 1377.03C1362.01 1382.14 1359.15 1387.31 1356.38 1392.52C1343.91 1390.78 1337.04 1390.45 1324.59 1390.14L1323.97 1384.44C1325.36 1381.92 1332.4 1370.46 1332.66 1369.65C1334.82 1363.14 1332.82 1356.17 1335.6 1348.35L1345.14 1345.96Z"/><path fill="#100F10" d="M1755.53 1355.24C1801.02 1356.6 1846.5 1358.33 1891.95 1360.43C1890.64 1366.91 1853.94 1399.75 1846.6 1406.67C1839.46 1400.95 1832.59 1401.75 1823.86 1402.06L1792.91 1401.29C1782.29 1399.55 1768.67 1402.54 1762.6 1393.58C1766.66 1385.4 1770.37 1379.65 1768.78 1370.72C1764.38 1364.59 1764.12 1364.93 1757.64 1361.67L1755.53 1355.24Z"/><path fill="#1A1A1A" d="M1228.48 1355.15C1238.54 1349.83 1328.6 1346.32 1345.14 1345.96L1335.6 1348.35C1332.82 1356.17 1334.82 1363.14 1332.66 1369.65C1332.4 1370.46 1325.36 1381.92 1323.97 1384.44C1324.1 1375.35 1324.71 1369.99 1322.22 1361.09C1307.49 1351.92 1248.57 1355.04 1228.48 1355.15Z"/><path fill="#8A8A8B" d="M2700.21 1777.49L2702 1774.24C2722.53 1775.06 2878.75 1792.77 2890.74 1798.79L2889.99 1800.48C2829.06 1795.85 2765.56 1781.11 2700.21 1777.49Z"/><path fill="#9D9D9D" d="M3192.89 1835.51C3212.32 1831.53 3350.74 1830.82 3369.1 1835.53C3314.25 1838.03 3247.23 1837.27 3192.89 1835.51Z"/><path fill="#8A8A8B" d="M2892.38 1800.9C2901.21 1797.01 2997.21 1809.16 3001.09 1814.52C2972.18 1812.92 2922.59 1804.84 2892.38 1800.9Z"/><path fill="#8A8A8B" d="M1657.8 1685.16C1666.34 1685.12 1726.11 1714.34 1729.55 1720.96C1709.93 1713.36 1676.73 1695.43 1657.8 1685.16Z"/><path fill="#8A8A8B" d="M1602.04 1657.32C1615.21 1659.5 1632.22 1668.86 1643.58 1675.91L1645.42 1679.3C1631.13 1672.5 1615.46 1665.47 1602.04 1657.32Z"/><path fill="#D7D7D8" d="M805.427 1419.76L807.579 1423.05L803.129 1436.03C805.738 1439.35 808.408 1438.81 813.772 1440.01C808.903 1443.08 795.261 1444.23 789.634 1441.77L790.773 1437.09L789.058 1435.47L780.152 1436.05C775.147 1436.78 769.443 1438.29 764.441 1439.45L764.365 1439.34L767.442 1438.11C770.479 1433.24 769.591 1435.88 769.722 1429.78C787.791 1429.12 790.75 1430.06 805.427 1419.76Z"/><path fill="#9D9D9D" d="M861.432 1374.87C868.744 1374.27 875.985 1373.11 882.366 1376.53L880.647 1378.95C867.049 1383.3 849.637 1384.97 835.523 1383.07C825.271 1383.1 822.349 1382.76 812.269 1380.79C829.201 1375.56 852.591 1379.67 861.432 1374.87Z"/><path fill="#D7D7D8" d="M846.204 1410.68C854.921 1413.89 856.782 1413.14 856.005 1422.37C848.349 1433.07 838.857 1436.85 826.571 1440.38L820.483 1438.92L821.017 1437.06C825.906 1437.46 823.436 1437.51 828.425 1436.87C830.864 1426.39 838.842 1418.61 846.204 1410.68Z"/><path fill="#100F10" d="M801.887 1834.59C935.626 1791.06 1054.06 1783.42 1193.63 1803.55C1378.35 1830.19 1524.47 1904.62 1648.82 2045.51C1659.88 2058.69 1671.31 2071.81 1681.16 2085.91C1702.19 2113.68 1721.06 2143.02 1737.61 2173.68C1725.14 2187 1730.3 2191.59 1725.4 2205.71L1722.16 2207.85L1724.74 2207.04L1720.8 2206.55L1715.1 2198.55C1712.06 2202.47 1713.03 2200.21 1713.38 2205.94C1717.36 2211.75 1722.46 2217.15 1722.25 2223.63C1718.5 2227.69 1720.73 2226.69 1716.05 2228.04C1716.7 2232.3 1716.91 2233.93 1718.43 2237.97C1717.57 2240.55 1716.38 2244.09 1715.48 2246.75C1714.34 2247.69 1713.2 2248.62 1712.07 2249.55C1716.28 2258.37 1716.12 2256.25 1711.27 2266.74C1712.2 2280.59 1714.89 2295.26 1706.44 2307.05C1700.16 2315.81 1710.69 2359.14 1716.22 2365.45C1717.3 2370.28 1717.57 2372.97 1719.86 2377.36C1726.57 2381.21 1733.75 2384.12 1736.95 2390.83L1737.57 2403.72C1735.43 2417.5 1728.19 2442.51 1734.46 2453.39L1743.88 2454.29L1755.34 2460.22C1753.67 2482 1750.44 2519.64 1742.3 2538.88C1734.02 2541.99 1728.3 2542.59 1724.75 2551.66C1719.6 2564.8 1718.3 2588.39 1718.12 2602.74C1742.78 2609.4 1777.95 2604.54 1803.99 2607.29C1814.31 2608.38 1796.48 2612.51 1815.61 2613.59C1823.6 2613.88 1835.11 2612.54 1840.08 2617.66C1840.76 2683.57 1849.46 2753.54 1851.92 2819.56C1852.87 2844.81 1852.56 2867.83 1871.95 2884.51C1906.86 2920.46 1929.58 2907.46 1973.44 2907.73C1980.19 2908.49 1985.95 2908.45 1991.93 2911.28C1989.29 2927.36 1997.12 2920.77 1997.48 2934.04C1987.5 2940.92 1994.09 2926.24 1985.76 2940.4L1989.5 2935.38L1986.34 2941.57L1991.06 2948.09C1995.65 2947.44 1993.87 2947.92 1997.98 2945.01L2003.54 2945.28L2002.6 2949.33C1998.96 2950.42 1997.53 2950.77 1993.91 2951.55C1991.46 2956.13 1991.23 2956.05 1990.4 2961.09C1987.85 2954.22 1986.53 2948.89 1981.81 2943.3C1976.04 2948.05 1974.55 2949.79 1967.07 2948.59C1970.43 2946.16 1973.78 2943.7 1977.1 2941.22L1977.13 2938.87L1973.4 2937.07C1966.52 2941.55 1965.04 2943.47 1959.28 2949.53C1953.54 2940.89 1948.85 2940.5 1938.99 2938.71L1939.97 2931.91C1932.9 2933.89 1936.11 2940.93 1929.94 2940.22L1927.16 2935.31C1921.12 2936.13 1923.38 2935.52 1917.93 2938.87C1916.28 2930.23 1925.54 2931.81 1919.84 2926.96C1914.38 2929.46 1913.09 2931.81 1909.3 2936.41L1905.46 2936.67L1898.1 2929.63C1892.84 2930.13 1892.7 2931.12 1888.43 2934.6C1883.14 2934.18 1877.85 2933.85 1872.6 2933.11L1873.94 2927.16L1871.36 2927.18C1860.51 2927.14 1847.63 2925.45 1836.81 2923.95C1832.49 2928.42 1834.84 2927.69 1830.01 2928.5C1822.54 2923.47 1814.36 2915.77 1807.05 2916.1C1805.51 2920.6 1806.59 2920.39 1803.88 2922.03C1801.15 2917.77 1802.22 2920.05 1801.97 2914.39C1796.87 2914.85 1799.18 2913.92 1795.37 2918.33L1796.74 2921.36C1792.32 2919.07 1792.49 2919.11 1788.94 2915.58C1780.7 2916.37 1772.8 2918.27 1766.06 2923.44L1764.53 2922.19C1768.93 2918.49 1768.92 2919.31 1771.31 2914.19L1768.95 2911.96C1760.78 2915.27 1736 2916.84 1726.68 2916.18C1723.91 2914.55 1722.42 2913.69 1719.32 2912.73C1718.54 2913.31 1711.03 2918.85 1711.03 2918.85C1688.49 2917.69 1668.38 2923.39 1647.91 2933.02L1643.53 2927.6C1640.14 2932.46 1641.25 2933.19 1640.78 2940.1L1635.12 2936.08C1628.61 2945.94 1631.04 2945.62 1621.53 2951.24C1618.1 2958.34 1617.33 2956.25 1618.84 2961.2L1609.23 2962.98L1609 2969.58C1605.06 2966.46 1605.91 2967.16 1602.71 2963.27L1599.9 2964.18L1598.64 2972.45C1587.9 2977.72 1575.18 2976.47 1568.01 2988.04C1565.75 2999.7 1566.59 3031.62 1565.63 3034.82C1562.31 3030.32 1564.22 3031.17 1560.03 3029.56C1559.06 3035.2 1559.24 3033.67 1559.64 3039.43C1549.62 3049.08 1528.16 3072.49 1516.15 3074.05C1474.89 3079.41 1431.52 3114.16 1394.84 3121.84C1349.99 3131.24 1265.11 3115.09 1225.84 3138.12C1167.23 3132.67 1114.11 3130.36 1055.41 3127.33C1021.87 3126.96 1006.87 3125.98 973.729 3132.26C919.725 3118.69 839.087 3117.34 782.344 3105.49C758.806 3100.57 735.418 3091.66 712.213 3085.5C682.705 3077.68 681.442 3079.55 656.71 3093.57C646.858 3090.92 640.719 3090.52 631.765 3088.67C597.449 3080.7 563.755 3055.35 538.232 3032.97C468.736 2972.03 489.571 2898.92 532.673 2830.55C542.674 2814.68 541.714 2798.99 557.381 2782.61L574.169 2797.52C574.568 2794.96 560.317 2772.37 557.92 2768.35L559.286 2765.62L555.594 2758.05L553.232 2756.96C541.785 2751.51 523.201 2732.86 525.929 2722.32C532.177 2698.21 523.411 2690.19 512.137 2666.5C496.002 2666.63 479.865 2666.51 463.734 2666.16C460.229 2656.57 458.292 2646.85 455.989 2636.9C463.902 2613.86 470.06 2596.12 483.359 2575.77C480.552 2556.09 477.048 2543.26 466.629 2525.99C460.101 2515.17 459.974 2503.37 458.91 2490.91C471.353 2473.2 469.469 2469 463.012 2449.07C454.561 2445.5 446.156 2441.82 437.798 2438.03C436.042 2405.3 451.979 2365.91 476.686 2344.17C482.778 2325.02 489.109 2318.16 472.083 2304.64C466.236 2301.41 451.742 2289.82 445.69 2285.19C434.886 2278.37 427.72 2271.87 415.327 2272.61C407.176 2277.39 409.519 2276.42 404.276 2286.06C403.515 2279.52 403.129 2276.2 401.479 2269.66C397.678 2265.2 397.639 2265.45 392.52 2262.41C414.659 2194.2 445.191 2130.28 490.534 2074.22C497.329 2065.01 505.63 2055.04 512.847 2046L507.982 2065.27C510.48 2066.65 512.843 2067.59 515.461 2068.74L518.726 2066.75C518.173 2057.83 534.198 2030.76 543.863 2026.91C543.508 2025.95 543.153 2024.99 542.798 2024.04C555.519 2010.98 579.535 1997.16 585.468 1980.25L581.45 1974.32L616.52 1944.95L624.321 1939.32C633.914 1930.92 643.679 1924 653.954 1916.49C690.618 1886.51 758.762 1852.1 801.887 1834.59Z"/><path fill="#282829" d="M801.887 1834.59C935.626 1791.06 1054.06 1783.42 1193.63 1803.55C1378.35 1830.19 1524.47 1904.62 1648.82 2045.51C1659.88 2058.69 1671.31 2071.81 1681.16 2085.91C1702.19 2113.68 1721.06 2143.02 1737.61 2173.68C1725.14 2187 1730.3 2191.59 1725.4 2205.71L1722.16 2207.85L1724.74 2207.04L1720.8 2206.55L1715.1 2198.55C1712.06 2202.47 1713.03 2200.21 1713.38 2205.94C1717.36 2211.75 1722.46 2217.15 1722.25 2223.63C1718.5 2227.69 1720.73 2226.69 1716.05 2228.04C1716.7 2232.3 1716.91 2233.93 1718.43 2237.97C1717.57 2240.55 1716.38 2244.09 1715.48 2246.75C1714.34 2247.69 1713.2 2248.62 1712.07 2249.55C1716.28 2258.37 1716.12 2256.25 1711.27 2266.74C1708.75 2258.82 1704.84 2248.27 1704.24 2240.27C1696.26 2233.79 1691.81 2233.68 1682.03 2233.15C1677.48 2221.6 1676.87 2223.68 1666.12 2214.9C1665.18 2211.46 1664.07 2208.66 1662.42 2205.51C1654.4 2178.4 1625.9 2144.22 1605.44 2124.35C1591.52 2111.38 1588.61 2112.03 1594.63 2093.78C1597.4 2087.89 1597.96 2078.25 1598.77 2071.5C1580.09 2030.83 1580.04 2025.78 1544.36 2035.09C1539.13 2036.45 1521.05 2018.19 1516.94 2013.22C1507.26 2001.54 1493.9 1995.21 1481 1987.32C1469.47 1978.32 1436.8 1963.77 1433.64 1950.34C1419.49 1952.33 1426.77 1952.58 1414.43 1946.42L1421.92 1942.13C1408.49 1938.05 1420.96 1946.78 1408.26 1943.01C1403.3 1936.45 1407.14 1923.58 1400.98 1912.83C1394.55 1901.6 1376.75 1892.4 1365.41 1889.37C1354.21 1886.38 1347.28 1905.48 1336.83 1911.24C1326.27 1907.53 1250.1 1878.62 1246.81 1873.88C1250.13 1872.32 1248.98 1873.45 1250.61 1870.91L1246.23 1870C1243.95 1872.36 1241.84 1874.41 1239.45 1876.67C1223.47 1876.06 1208.33 1869.81 1191.8 1867.33C1179.95 1865.55 1171.6 1868.32 1161.9 1865.21C1157.54 1861.13 1156.13 1845.73 1154.94 1838.83C1141.93 1835.81 1119.45 1834.17 1105.28 1832.48C1103.3 1835.74 1085.71 1860.19 1084.25 1860.31C1064.29 1861.91 1045.27 1858.38 1024.95 1864.46C1021.43 1865.51 1018.45 1858.31 1016.65 1855.3C1003.3 1846.52 985.268 1855.67 974.08 1863.47C961.675 1872.11 916.001 1883.96 901.619 1883.3C891.016 1867.69 889.055 1868.07 871.643 1869.15C836.158 1870.42 837.431 1908.05 813.191 1925.23C794.347 1938.58 781.926 1946.78 760.105 1934.92L757.866 1933.68C744.41 1935.13 733.332 1945.29 722.335 1953.46L718.077 1951.72L714.513 1953.29L712.525 1947.83L710.299 1949.2C710.419 1953.46 711.017 1955.79 709.724 1959.47L706.007 1960C705.666 1958.06 708.064 1952.33 708.908 1949.92L706.671 1948.16L705.464 1953.18L703.002 1951.24C702.435 1928.66 680.805 1935.91 674.813 1917.16C663.321 1917.99 663.279 1919.72 656.113 1928.7C652.235 1924.48 654.703 1923.79 653.954 1916.49C690.618 1886.51 758.762 1852.1 801.887 1834.59Z"/><path fill="#363537" d="M653.954 1916.49C690.618 1886.51 758.762 1852.1 801.887 1834.59C800.965 1840.2 799.435 1845.86 799.24 1851.41C804.567 1853.8 802.6 1853.15 808.563 1853.69C804.415 1858.02 795.425 1858.05 789.879 1856.54C787.963 1852.51 788.46 1854.73 788.727 1849.82C780.571 1855.75 774.571 1867.34 768.776 1876.26C762.744 1873.62 763.425 1868.23 755.753 1862.51C745.406 1879.36 759.5 1871.13 736.895 1886.07C730.778 1884.69 733.586 1886.1 729.192 1880.04C732.083 1874.91 730.264 1877.25 737.097 1874.27L735.261 1872.1C726.97 1873.01 710.493 1885.2 707.392 1893.95C705.511 1899.26 698.799 1901.66 694.558 1904.23L703.801 1904.46L703.609 1906.47C685.487 1914.64 688.347 1903.34 673.755 1906.31L673.578 1908L686.745 1913.17L686.306 1914.36L674.813 1917.16C663.321 1917.99 663.279 1919.72 656.113 1928.7C652.235 1924.48 654.703 1923.79 653.954 1916.49Z"/><path fill="#363537" d="M1648.82 2045.51C1659.88 2058.69 1671.31 2071.81 1681.16 2085.91L1676.63 2086.67L1674.33 2090.11C1679.58 2097.62 1676.32 2099.5 1683.99 2107.06L1687.84 2107.3C1690.67 2111.13 1689.83 2108.91 1690.02 2114.08C1682.11 2114.67 1668.09 2106.56 1660.78 2102.56L1656.94 2105.46L1653.45 2102.86L1653.82 2100.44L1661.01 2099.26C1641.21 2077.25 1643.32 2093.26 1632.91 2085.66C1643.74 2068.75 1633.47 2082.32 1635.8 2068.21C1640.67 2066.93 1640.12 2067.72 1643.86 2064.99C1640.67 2058.98 1638.75 2056.94 1639.88 2050.3L1643.1 2053.94L1645.6 2051.54C1645.8 2048.21 1646.17 2049.11 1648.82 2045.51Z"/><path fill="#302C2C" d="M1704.24 2240.27L1706.51 2237.35C1700.9 2224.43 1700.18 2219.12 1690.86 2207.96L1691.18 2205.51C1696.62 2201.58 1696.14 2201.55 1702.74 2200.92C1707.83 2210.66 1714.09 2217.74 1716.05 2228.04C1716.7 2232.3 1716.91 2233.93 1718.43 2237.97C1717.57 2240.55 1716.38 2244.09 1715.48 2246.75C1714.34 2247.69 1713.2 2248.62 1712.07 2249.55C1716.28 2258.37 1716.12 2256.25 1711.27 2266.74C1708.75 2258.82 1704.84 2248.27 1704.24 2240.27Z"/><path fill="#1A1A1A" d="M1594.63 2093.78L1595.47 2105.79L1598.7 2108.45L1609.07 2107.39C1611.99 2111.39 1611.44 2109.17 1610.7 2114.08L1605.48 2116.8C1605.24 2120.38 1605.12 2120.77 1605.44 2124.35C1591.52 2111.38 1588.61 2112.03 1594.63 2093.78Z"/><path fill="#363537" d="M744.048 1887.11L747.221 1893.72C751.572 1895.11 752.271 1895.07 756.761 1895.23C760.124 1898.97 760.144 1899.22 764.034 1902.33L765.442 1896.15L767.01 1895.59C770.865 1899.83 770.197 1897.42 770.03 1902.66C764.538 1905.27 766.624 1904.1 759.108 1903.51L761.882 1905.49C764.276 1909.51 763.577 1907.41 764.161 1911.73C751.804 1914.21 742.904 1914.51 738.098 1901.07C739.159 1893.36 738.58 1892.85 744.048 1887.11Z"/><path fill="#363537" d="M686.59 1917.39C696.619 1915.93 712.71 1918.91 714.746 1930.79L709.813 1933.42C696.727 1932.22 699.88 1922.21 687.192 1919.84L686.59 1917.39Z"/><defs><linearGradient id="gradient_3" gradientUnits="userSpaceOnUse" x1="658.06342" y1="2929.7068" x2="491.84088" y2="2934.6531"><stop offset="0" stop-color="#9F9E9E"/><stop offset="1" stop-color="#D8D8D9"/></linearGradient></defs><path fill="url(#gradient_3)" d="M559.286 2765.62C565.814 2771.51 588.309 2808.6 595.166 2818.85C582.89 2829.59 575.092 2841.75 566.361 2855.47C574.835 2863.86 578.305 2867.15 585.265 2877.24C601.972 2872.66 613.962 2868.37 630.258 2862.27C641.117 2874.07 659.348 2886.87 657.805 2902.61C670.938 2932.97 683.176 2915.76 704.169 2930.71C719.693 2941.77 734.728 2955.13 749.183 2967.67C744.077 2981.18 738.575 2991.86 744.052 3006.3C747.522 3015.44 762.257 3021.26 771.002 3018.63C771.826 3041.92 728.379 3049.9 751.09 3072.08C774.295 3094.74 817.467 3084.33 841.042 3106.29C872.049 3110.61 918.258 3118.07 948.469 3118.65L963.255 3121.72C985.742 3126.28 1045.51 3119.69 1055.41 3127.33C1021.87 3126.96 1006.87 3125.98 973.729 3132.26C919.725 3118.69 839.087 3117.34 782.344 3105.49C758.806 3100.57 735.418 3091.66 712.213 3085.5C682.705 3077.68 681.442 3079.55 656.71 3093.57C646.858 3090.92 640.719 3090.52 631.765 3088.67C597.449 3080.7 563.755 3055.35 538.232 3032.97C468.736 2972.03 489.571 2898.92 532.673 2830.55C542.674 2814.68 541.714 2798.99 557.381 2782.61L574.169 2797.52C574.568 2794.96 560.317 2772.37 557.92 2768.35L559.286 2765.62Z"/><defs><linearGradient id="gradient_4" gradientUnits="userSpaceOnUse" x1="774.25635" y1="3005.3926" x2="626.13745" y2="2974.7993"><stop offset="0" stop-color="#605F5F"/><stop offset="1" stop-color="#A8A7A8"/></linearGradient></defs><path fill="url(#gradient_4)" d="M841.042 3106.29C795.343 3099.7 752.903 3090.43 710.194 3070.68C703.563 3067.62 699.599 3063.44 692.507 3065.42L693.592 3071.08C687.548 3069.35 694.405 3066.34 686.497 3058.87L685.506 3064.92L678.801 3060.89C674.842 3065.12 681.513 3062.06 680.909 3068.95C672.147 3065.8 679.467 3062.99 671.169 3056.88C670.449 3059.54 669.769 3062.2 669.129 3064.88C659.141 3061.61 647.695 3045.15 641.747 3036.28C623 3008.35 638.259 2967.11 640.865 2935.78C641.656 2926.27 641.452 2905.01 643.063 2898.1L645.752 2896.71C648.486 2899.24 650.592 2901.17 653.513 2903.47L654.466 2898.42L657.805 2902.61C670.938 2932.97 683.176 2915.76 704.169 2930.71C719.693 2941.77 734.728 2955.13 749.183 2967.67C744.077 2981.18 738.575 2991.86 744.052 3006.3C747.522 3015.44 762.257 3021.26 771.002 3018.63C771.826 3041.92 728.379 3049.9 751.09 3072.08C774.295 3094.74 817.467 3084.33 841.042 3106.29Z"/><defs><linearGradient id="gradient_5" gradientUnits="userSpaceOnUse" x1="469.00763" y1="2073.6492" x2="447.70898" y2="2281.9702"><stop offset="0" stop-color="#6D6C6B"/><stop offset="1" stop-color="#969796"/></linearGradient></defs><path fill="url(#gradient_5)" d="M392.52 2262.41C414.659 2194.2 445.191 2130.28 490.534 2074.22L495.593 2074.88C495.226 2085.79 499.359 2093.85 501.768 2104.3C496.599 2118.59 500.96 2150.91 498.32 2163.67C494.936 2169.8 494.82 2171.97 493.43 2178.67C495.799 2184.92 493.763 2182.65 499.77 2185.67L509.461 2184.53L501.922 2202.63L513.578 2219.49C507.577 2238.36 506.059 2251.29 488.292 2260.54C480.01 2264.85 474.41 2286.82 473.851 2296.03L472.083 2304.64C466.236 2301.41 451.742 2289.82 445.69 2285.19C434.886 2278.37 427.72 2271.87 415.327 2272.61C407.176 2277.39 409.519 2276.42 404.276 2286.06C403.515 2279.52 403.129 2276.2 401.479 2269.66C397.678 2265.2 397.639 2265.45 392.52 2262.41Z"/><path fill="#9D9D9D" d="M445.69 2285.19C451.785 2279.39 452.011 2278.76 459.955 2277.32C469.382 2279.69 467.449 2285.29 468.397 2293.8L473.851 2296.03L472.083 2304.64C466.236 2301.41 451.742 2289.82 445.69 2285.19Z"/><defs><linearGradient id="gradient_6" gradientUnits="userSpaceOnUse" x1="700.45685" y1="1981.9441" x2="543.40857" y2="1984.0577"><stop offset="0" stop-color="#3B3A3C"/><stop offset="1" stop-color="#5E5E5F"/></linearGradient></defs><path fill="url(#gradient_6)" d="M653.954 1916.49C654.703 1923.79 652.235 1924.48 656.113 1928.7C663.279 1919.72 663.321 1917.99 674.813 1917.16C680.805 1935.91 702.435 1928.66 703.002 1951.24L705.464 1953.18L706.671 1948.16L708.908 1949.92C708.064 1952.33 705.666 1958.06 706.007 1960C697.596 1966.62 695.926 1967.96 689.55 1976.47C688.651 1985.86 692.039 1980.73 691.699 1990.42L687.52 1993.84L688.102 1999.23L685.582 2000.83C679.921 1999.69 678.37 1999.2 673.452 1996.19C669.036 1999.15 667.092 1998.93 661.824 1999.45C665.577 2003.62 666.073 2003.82 668.533 2008.75L667.293 2011.26L660.498 2010.32L654.603 2017C632.419 2010.88 632.357 2015.86 618.597 2032.27L601.274 2052.93L596.337 2046.76L587.522 2043.62C577.65 2046.34 579.119 2044.34 573.486 2050.83C569.389 2048.09 565.472 2046.84 560.894 2045.06C557.28 2046.99 554.789 2048.82 551.532 2051.27L549.159 2049.37C548.767 2043.95 548.552 2042.02 549.201 2036.58L549.679 2032.79L543.863 2026.91C543.508 2025.95 543.153 2024.99 542.798 2024.04C555.519 2010.98 579.535 1997.16 585.468 1980.25L581.45 1974.32L616.52 1944.95L624.321 1939.32C633.914 1930.92 643.679 1924 653.954 1916.49Z"/><path fill="#444445" d="M644.698 2004.03C640.661 2004.87 642.527 2005.09 639.069 2003.69L639.804 1998.32C637.166 1992.96 636.027 1991.25 634.61 1985.41L637.034 1984.31C641.151 1985.75 643.007 1986.3 647.206 1987.08L650.832 1987.73C651.841 1991.51 652.291 1992.92 653.767 1996.65L655.013 1999.7L661.824 1999.45C665.577 2003.62 666.073 2003.82 668.533 2008.75L667.293 2011.26L660.498 2010.32C653.37 2006.08 656.962 2006.56 649.506 2007.94L644.698 2004.03Z"/><path fill="#5F6063" d="M596.337 2046.76L591.722 2041.9L594.237 2038.18L594.81 2040.92C596.337 2031.62 598.666 2029.27 607.067 2025.85C615.317 2027.56 611.396 2025.97 618.597 2032.27L601.274 2052.93L596.337 2046.76Z"/><path fill="#444445" d="M624.321 1939.32C632.781 1941.96 629.923 1941.24 639.658 1938.9C634.796 1945.16 636.673 1944.64 630.318 1946.91C624.348 1945.69 622.658 1945.04 616.52 1944.95L624.321 1939.32Z"/><defs><linearGradient id="gradient_7" gradientUnits="userSpaceOnUse" x1="860.04016" y1="3097.5007" x2="768.77393" y2="3023.001"><stop offset="0" stop-color="#313030"/><stop offset="1" stop-color="#626161"/></linearGradient></defs><path fill="url(#gradient_7)" d="M797.773 2994.23C808.67 3000.1 821.113 3006.61 831.221 3013.63C853.55 3029.12 865.84 3042.22 892.093 3050.92C891.993 3063.16 892.502 3077.17 890.246 3088.99C889.799 3083.15 889.46 3067.21 886.927 3063.33L885.499 3064.64C875.126 3074.08 862.296 3079.28 857.814 3093.84C862.196 3111.2 942.322 3102.39 948.469 3118.65C918.258 3118.07 872.049 3110.61 841.042 3106.29C817.467 3084.33 774.295 3094.74 751.09 3072.08C728.379 3049.9 771.826 3041.92 771.002 3018.63C777.372 3011.33 790.001 3000.98 797.773 2994.23Z"/><path fill="#444445" d="M507.982 2065.27C510.48 2066.65 512.843 2067.59 515.461 2068.74L518.726 2066.75C518.173 2057.83 534.198 2030.76 543.863 2026.91L549.679 2032.79L549.201 2036.58C548.552 2042.02 548.767 2043.95 549.159 2049.37L551.532 2051.27C554.789 2048.82 557.28 2046.99 560.894 2045.06C565.472 2046.84 569.389 2048.09 573.486 2050.83C579.119 2044.34 577.65 2046.34 587.522 2043.62L596.337 2046.76L601.274 2052.93L591.208 2069.18C596.246 2075.67 601.458 2082.66 606.703 2088.92C596.924 2101.66 584.36 2118.17 576.405 2132.11C566.034 2130.41 554.299 2128.22 543.998 2126.95C541.696 2130.41 520.042 2164.09 519.348 2164.73L509.461 2184.53L499.77 2185.67C493.763 2182.65 495.799 2184.92 493.43 2178.67C494.82 2171.97 494.936 2169.8 498.32 2163.67C500.96 2150.91 496.599 2118.59 501.768 2104.3C499.359 2093.85 495.226 2085.79 495.593 2074.88L490.534 2074.22C497.329 2065.01 505.63 2055.04 512.847 2046L507.982 2065.27Z"/><path fill="#5F6063" d="M490.534 2074.22C497.329 2065.01 505.63 2055.04 512.847 2046L507.982 2065.27C506.347 2079.45 503.541 2090.67 501.768 2104.3C499.359 2093.85 495.226 2085.79 495.593 2074.88L490.534 2074.22Z"/><path fill="#8A8A8B" d="M498.32 2163.67L499.643 2170.02C505.892 2164.11 504.402 2161.33 512.918 2156.95C511.883 2161.76 511.494 2161.87 509.432 2166.46L512.799 2168.04L515.374 2166.59C518.396 2164.91 517.146 2165.38 519.348 2164.73L509.461 2184.53L499.77 2185.67C493.763 2182.65 495.799 2184.92 493.43 2178.67C494.82 2171.97 494.936 2169.8 498.32 2163.67Z"/><path fill="#363537" d="M706.007 1960L709.724 1959.47C711.017 1955.79 710.419 1953.46 710.299 1949.2L712.525 1947.83L714.513 1953.29L718.077 1951.72L722.335 1953.46C711.434 1978.04 708.545 1983.23 688.102 1999.23L687.52 1993.84L691.699 1990.42C692.039 1980.73 688.651 1985.86 689.55 1976.47C695.926 1967.96 697.596 1966.62 706.007 1960Z"/><path fill="#363537" d="M661.824 1999.45C667.092 1998.93 669.036 1999.15 673.452 1996.19C678.37 1999.2 679.921 1999.69 685.582 2000.83C677.296 2009.52 667.403 2023.49 654.603 2017L660.498 2010.32L667.293 2011.26L668.533 2008.75C666.073 2003.82 665.577 2003.62 661.824 1999.45Z"/><path fill="#1A1A1A" d="M1662.42 2205.51C1664.07 2208.66 1665.18 2211.46 1666.12 2214.9C1676.87 2223.68 1677.48 2221.6 1682.03 2233.15C1663.67 2234.42 1654.88 2221.97 1662.42 2205.51Z"/><path fill="#444445" d="M1019.07 2008.85C1163.55 2000.74 1312.63 2044.8 1425.41 2136.42C1536.92 2225.39 1608.41 2355.11 1624.07 2496.91C1636.03 2621.05 1598.26 2744.87 1519.03 2841.18C1424.22 2956.91 1297.39 3009.46 1152.14 3023.62C1042.56 3027.85 958.843 3014.8 858.746 2968.63C377.177 2746.51 451.611 2046.42 1019.07 2008.85Z"/><path fill="#D7D7D8" d="M1134.98 2468.97C1140.24 2468.71 1142.11 2472.68 1144.31 2476.21C1144.59 2489.3 1124.69 2522.66 1117.65 2535.75C1164.44 2568.08 1124.27 2586.78 1087.78 2586.99C1074.23 2587.07 1051.98 2589.65 1038.57 2592.53L1035.95 2593.12C1030.42 2591.41 1031.1 2591.17 1026.22 2587.53C1017.07 2567.59 1042.92 2541.62 1048.38 2517.22C1028.18 2512.24 1018.99 2497.77 1031.41 2485.32C1045.71 2470.97 1115.57 2470.5 1134.98 2468.97Z"/><path fill="#1A1A1A" d="M1108.82 2347.56C1049.17 2338.53 994.693 2352.02 951.938 2395.61C944.94 2402.74 940.126 2414.19 932.259 2419.6C932.818 2413.77 942.984 2397.4 947.06 2392.66C985.611 2347.8 1043 2332.1 1099.76 2337.75C1151.67 2342.79 1199.33 2368.62 1231.89 2409.35C1261.5 2445.86 1275.08 2492.79 1269.55 2539.46C1266.35 2567.85 1255.37 2600.71 1237.3 2623.15L1235.58 2623.51C1235.7 2616.29 1246.99 2597.62 1250.77 2589.32C1259.54 2570.05 1266.34 2540.18 1264.32 2519.25C1261.68 2510.85 1260.17 2498.18 1257.53 2488.49C1244.72 2441.46 1219.12 2403.26 1176.49 2378.67C1173.67 2382.11 1157.8 2392.94 1152.08 2398.03L1128.96 2386.62C1128.96 2374.13 1129.06 2368.81 1130.87 2356.3C1125.44 2352.82 1115.31 2349.84 1108.82 2347.56Z"/><path fill="#363537" d="M1108.82 2347.56C1190.6 2348.59 1265.14 2433.37 1264.43 2514.68C1264.41 2516.2 1264.38 2517.73 1264.32 2519.25C1261.68 2510.85 1260.17 2498.18 1257.53 2488.49C1244.72 2441.46 1219.12 2403.26 1176.49 2378.67C1173.67 2382.11 1157.8 2392.94 1152.08 2398.03L1128.96 2386.62C1128.96 2374.13 1129.06 2368.81 1130.87 2356.3C1125.44 2352.82 1115.31 2349.84 1108.82 2347.56Z"/><path fill="#8A8A8B" d="M1130.87 2356.3C1149.66 2363.51 1159.42 2367.63 1176.49 2378.67C1173.67 2382.11 1157.8 2392.94 1152.08 2398.03L1128.96 2386.62C1128.96 2374.13 1129.06 2368.81 1130.87 2356.3Z"/><path fill="#9D9D9D" d="M862.488 2884.02C883.386 2893.53 905.172 2904.67 926.038 2913.5C920.135 2923.47 908.9 2959.47 907.564 2970.8C876.167 2956.77 858.813 2950.66 828.305 2931.8C838.759 2922.76 855.353 2896.48 862.488 2884.02Z"/><path fill="#5F6063" d="M926.038 2913.5C942.708 2919.77 962.205 2926.93 979.321 2931.31C983.3 2945.26 985.003 2973.81 987.179 2989.55L983.534 2992.94C969.187 2993.32 921.418 2977.84 907.564 2970.8C908.9 2959.47 920.135 2923.47 926.038 2913.5Z"/><path fill="#282829" d="M944.898 2048.92L947.372 2049.91C948.184 2050.88 948.996 2051.86 949.809 2052.84C953.061 2134.57 959.726 2256.35 964.571 2333.54L961.297 2332.88C955.656 2283.95 936.875 2082.42 944.898 2048.92Z"/><path fill="#282829" d="M1064.76 2086.25C1095.58 2089.14 1090.12 2117.97 1091.88 2142.97C1092.61 2153.32 1095.2 2201.53 1092.67 2208.83L1093.46 2210.21L1093.29 2207.05L1091.77 2206.64C1087.23 2181.9 1087.5 2157.08 1082.41 2132.49C1078.85 2122.5 1079.46 2099.35 1066.22 2099.13C1055.79 2110.46 1055.61 2151.29 1054.87 2167.97L1054.03 2167.94C1054.35 2138.44 1026.7 2094.23 1064.76 2086.25Z"/><path fill="#282829" d="M979.321 2931.31C980.621 2905.85 976.15 2757.1 979.746 2748.76C985.875 2770.8 985.716 2948.14 989.373 2983.06C989.548 2984.73 987.921 2987.98 987.179 2989.55C985.003 2973.81 983.3 2945.26 979.321 2931.31Z"/><path fill="#5F6063" d="M855.452 2403.8L857.641 2403.6L859.011 2405.04C841.713 2407.76 810.571 2407.85 791.61 2408.94C731.447 2412.41 673.169 2412.15 613.078 2411.71L612.919 2410.12L617.682 2411.12C622.507 2410.6 626.426 2410.02 631.182 2409.25L622.68 2406.66C626.112 2405.06 703.749 2402.43 709.874 2403.54C759.635 2412.53 806.359 2401.96 855.452 2403.8Z"/><path fill="#363537" d="M1018.52 2663.96C1026.91 2665.5 1040.32 2670.55 1050.01 2672.84C1084.22 2680.9 1121.15 2682.88 1154.8 2671.43L1157.33 2670.55L1160.63 2672.71C1163.63 2671.66 1166.42 2670.4 1169.23 2668.92L1170.75 2670.76L1168.3 2673.94C1165.83 2675.26 1163.32 2676.5 1160.76 2677.64C1131.02 2690.6 1081.56 2692.93 1050.81 2680.79L1056.71 2681.98C1042.83 2674.91 1032.44 2672.03 1018.52 2663.96Z"/><path fill="#1A1A1A" d="M636.887 2499.53L643.036 2499.62C648.852 2503.48 647.244 2500.91 648.604 2507.19C645.872 2512.52 643.159 2515.88 647.24 2520.69C651.12 2520.36 655.002 2520.04 658.885 2519.75C667.835 2519.08 680.393 2516.86 687.246 2522.74C673.241 2529.93 663.56 2515.93 652.146 2524.03C657.329 2527.26 664.469 2526.13 671 2526C682.281 2530.67 695.337 2525.62 699.419 2529.55C686.054 2531.41 648.827 2534.85 637.028 2528.63C628.752 2524.26 627.568 2518.69 625.191 2510.6C626.959 2503.64 628.525 2504.84 636.887 2499.53Z"/><path fill="#100F10" d="M1525.52 2509.69C1547.7 2512.69 1553.63 2539.11 1534.26 2547.83C1526.31 2547.63 1524.74 2546.03 1517.97 2542.06C1513.06 2540.12 1508.59 2538.82 1506.23 2534.66L1509.45 2536.95L1509.89 2533.56C1520.24 2532.66 1525.39 2531.34 1529.76 2521.24C1528.46 2515.92 1527.81 2514.73 1525.52 2509.69Z"/><path fill="#363537" d="M1113.02 2894.9C1118.93 2903.25 1115 2916.83 1116.2 2924.87C1116.37 2926.05 1129.52 2935.78 1115.02 2944.25C1101.1 2944.67 1104.39 2939.43 1089.02 2942.43L1088.27 2940.85C1103.55 2923.3 1093.63 2930.62 1113.64 2925.01C1109.22 2923.81 1110.5 2924.09 1107.18 2923.41L1105.13 2923C1115.35 2909.14 1113.12 2912.1 1113.02 2894.9Z"/><path fill="#5F6063" d="M1442.47 2393.01C1451.18 2392.77 1454.12 2393 1462.8 2394.09C1426.46 2398.43 1382.94 2401.67 1346.62 2403.75C1339.64 2399.62 1337.19 2399.94 1329.1 2399.36C1345.9 2394.83 1421.45 2398.08 1442.47 2393.01Z"/><path fill="#302C2C" d="M1087.23 2884.19C1088.59 2897.65 1092.41 2909.77 1094.18 2923.08C1094.85 2928.07 1091.32 2929.58 1088.09 2932.01L1087.56 2932.01C1079.64 2924.89 1080.15 2892.89 1087.23 2884.19Z"/><path fill="#363537" d="M599.064 2355.52C601.869 2369.87 588.164 2376.88 591.735 2394.32L605.106 2390.58C603.766 2393.16 597.995 2396.06 594.969 2397.98C589.143 2401.22 585.283 2404.36 578.822 2403.92C575.841 2395.55 593.042 2370.62 599.064 2355.52Z"/><path fill="#5F6063" d="M1408.44 2539.18C1415.05 2538.25 1418.64 2537.16 1425.06 2539.06C1420.82 2542.69 1415.4 2542.3 1409.52 2542.84C1400.35 2543.95 1399.39 2544.18 1390.42 2542.8C1394.98 2539.61 1402.14 2539.87 1408.44 2539.18Z"/><defs><linearGradient id="gradient_8" gradientUnits="userSpaceOnUse" x1="2568.5894" y1="2720.0847" x2="2542.6013" y2="3138.7341"><stop offset="0" stop-color="#1B1B1C"/><stop offset="1" stop-color="#424042"/></linearGradient></defs><path fill="url(#gradient_8)" d="M3657.64 2719.01C3662.91 2714.41 3665.03 2712.66 3669.58 2707.1C3672.86 2708.76 3673.65 2708.45 3675.24 2711.92C3675.62 2712.75 3675.87 2716.72 3675.93 2717.42C3678.36 2743.96 3689.22 2766.57 3687.32 2793.75C3683.67 2846.02 3628.46 2907.9 3628.81 2927.79C3628.95 2935.22 3629 2942.63 3629.23 2950.06C3611.93 2957.37 3571.02 3000.63 3552.84 3014.25C3244.01 3245.62 2838.39 3141.52 2482.49 3136.78C2248.4 3129.39 2014.77 3163.53 1780.84 3139.85C1631.13 3124.7 1484.22 3147.09 1334.83 3145.07C1309.01 3144.72 1281.81 3144.25 1256.09 3145.37C1236.43 3146.99 1218.11 3146.64 1198.43 3145.5C1042.94 3136.52 885.514 3140.46 731.894 3111.13C706.875 3106.35 681.421 3099.7 656.71 3093.57C681.442 3079.55 682.705 3077.68 712.213 3085.5C735.418 3091.66 758.806 3100.57 782.344 3105.49C839.087 3117.34 919.725 3118.69 973.729 3132.26C1006.87 3125.98 1021.87 3126.96 1055.41 3127.33C1114.11 3130.36 1167.23 3132.67 1225.84 3138.12C1265.11 3115.09 1349.99 3131.24 1394.84 3121.84C1431.52 3114.16 1474.89 3079.41 1516.15 3074.05C1528.16 3072.49 1549.62 3049.08 1559.64 3039.43C1559.24 3033.67 1559.06 3035.2 1560.03 3029.56C1564.22 3031.17 1562.31 3030.32 1565.63 3034.82C1566.59 3031.62 1565.75 2999.7 1568.01 2988.04C1575.18 2976.47 1587.9 2977.72 1598.64 2972.45L1599.9 2964.18L1602.71 2963.27C1605.91 2967.16 1605.06 2966.46 1609 2969.58L1609.23 2962.98L1618.84 2961.2C1617.33 2956.25 1618.1 2958.34 1621.53 2951.24C1631.04 2945.62 1628.61 2945.94 1635.12 2936.08L1640.78 2940.1C1641.25 2933.19 1640.14 2932.46 1643.53 2927.6L1647.91 2933.02C1668.38 2923.39 1688.49 2917.69 1711.03 2918.85C1711.03 2918.85 1718.54 2913.31 1719.32 2912.73C1722.42 2913.69 1723.91 2914.55 1726.68 2916.18C1736 2916.84 1760.78 2915.27 1768.95 2911.96L1771.31 2914.19C1768.92 2919.31 1768.93 2918.49 1764.53 2922.19L1766.06 2923.44C1772.8 2918.27 1780.7 2916.37 1788.94 2915.58C1792.49 2919.11 1792.32 2919.07 1796.74 2921.36L1795.37 2918.33C1799.18 2913.92 1796.87 2914.85 1801.97 2914.39C1802.22 2920.05 1801.15 2917.77 1803.88 2922.03C1806.59 2920.39 1805.51 2920.6 1807.05 2916.1C1814.36 2915.77 1822.54 2923.47 1830.01 2928.5C1834.84 2927.69 1832.49 2928.42 1836.81 2923.95C1847.63 2925.45 1860.51 2927.14 1871.36 2927.18L1873.94 2927.16L1872.6 2933.11C1877.85 2933.85 1883.14 2934.18 1888.43 2934.6C1892.7 2931.12 1892.84 2930.13 1898.1 2929.63L1905.46 2936.67L1909.3 2936.41C1913.09 2931.81 1914.38 2929.46 1919.84 2926.96C1925.54 2931.81 1916.28 2930.23 1917.93 2938.87C1923.38 2935.52 1921.12 2936.13 1927.16 2935.31L1929.94 2940.22C1936.11 2940.93 1932.9 2933.89 1939.97 2931.91L1938.99 2938.71C1948.85 2940.5 1953.54 2940.89 1959.28 2949.53C1965.04 2943.47 1966.52 2941.55 1973.4 2937.07L1977.13 2938.87L1977.1 2941.22C1973.78 2943.7 1970.43 2946.16 1967.07 2948.59C1974.55 2949.79 1976.04 2948.05 1981.81 2943.3C1986.53 2948.89 1987.85 2954.22 1990.4 2961.09C1991.23 2956.05 1991.46 2956.13 1993.91 2951.55C1997.53 2950.77 1998.96 2950.42 2002.6 2949.33L2003.54 2945.28L1997.98 2945.01C1993.87 2947.92 1995.65 2947.44 1991.06 2948.09L1986.34 2941.57L1989.5 2935.38L1985.76 2940.4C1994.09 2926.24 1987.5 2940.92 1997.48 2934.04C1997.12 2920.77 1989.29 2927.36 1991.93 2911.28C1985.95 2908.45 1980.19 2908.49 1973.44 2907.73C2010.68 2903.32 2056.16 2901.1 2094.24 2898.27C2283.11 2884.22 2473.95 2884.71 2663.24 2886.35C2709.6 2886.75 2755.73 2891.06 2801.37 2891.63L2803.2 2892.49L2804.3 2896.21C2806.05 2899.79 2807.23 2902.39 2812.2 2902.83C3021.51 2921.62 3242.41 2916.81 3441.34 2842.24C3479.65 2827.88 3516.36 2807.28 3550.51 2788.95C3552.93 2786.26 3564.19 2780.12 3567.88 2777.94L3584.2 2768.47L3590.55 2764.49C3595.07 2768.06 3595.97 2770.15 3599.43 2774.6C3601.16 2772.11 3602.95 2769.65 3604.8 2767.24C3609.78 2763.32 3614.68 2760.6 3616.58 2754.86L3611.96 2750.58C3615.3 2747.91 3623.07 2742.95 3626.91 2740.35L3657.64 2719.01Z"/><path fill="#8A8A8B" d="M3657.64 2719.01C3662.91 2714.41 3665.03 2712.66 3669.58 2707.1C3672.86 2708.76 3673.65 2708.45 3675.24 2711.92C3675.62 2712.75 3675.87 2716.72 3675.93 2717.42C3678.36 2743.96 3689.22 2766.57 3687.32 2793.75C3683.67 2846.02 3628.46 2907.9 3628.81 2927.79C3628.95 2935.22 3629 2942.63 3629.23 2950.06C3611.93 2957.37 3571.02 3000.63 3552.84 3014.25C3244.01 3245.62 2838.39 3141.52 2482.49 3136.78C2248.4 3129.39 2014.77 3163.53 1780.84 3139.85C1631.13 3124.7 1484.22 3147.09 1334.83 3145.07C1309.01 3144.72 1281.81 3144.25 1256.09 3145.37L1266.06 3142.31C1281.14 3137.54 1299.9 3137.45 1315.46 3137.87C1378.99 3139.57 1436.59 3137.56 1499.05 3124.9C1536.78 3117.25 1579.19 3116.69 1617.18 3105.57C1629.11 3102.08 1646.11 3102.17 1658.42 3098.5C1677.28 3092.55 1680.12 3098.55 1697.78 3100.63C1704.92 3101.47 1718.9 3092.75 1730.29 3093.66L1729.28 3097.71C1778.76 3098.84 1852.1 3104.19 1901.44 3110.18C1980.68 3119.79 2025.07 3117.18 2104.35 3110.38C2205.51 3101.71 2310.23 3102.81 2411.81 3100.45C2502.71 3098.96 2592.5 3103.98 2682.85 3109.63C2687.7 3109.93 2696.14 3113.89 2703.39 3114.49C2856.56 3127.22 3020.9 3145.07 3173.27 3112.76C3194.44 3114.01 3324.31 3076.89 3342.66 3061.67C3349.5 3060.77 3351.36 3060.22 3358.05 3057.39C3409.83 3035.41 3461.47 3010.75 3504.28 2973.62C3511.41 2967.44 3517.95 2958.31 3524.92 2951.76L3527.22 2949.63L3529.22 2945.52L3528.15 2943.12C3523.83 2945.2 3525.02 2945.05 3520.47 2945.79C3531.12 2922.12 3558.4 2902.68 3574.95 2882.14C3587.93 2866.03 3591.95 2852.48 3600.88 2834.26C3605.99 2823.84 3604.86 2824.41 3613.03 2821.82L3614.77 2818.23C3612.4 2816.02 3610.24 2813.92 3607.95 2811.62C3609.74 2800.96 3610.72 2789.8 3615.13 2780.07C3616.92 2776.12 3612.81 2771.08 3610.55 2767.48L3604.8 2767.24C3609.78 2763.32 3614.68 2760.6 3616.58 2754.86L3611.96 2750.58C3615.3 2747.91 3623.07 2742.95 3626.91 2740.35L3657.64 2719.01Z"/><defs><linearGradient id="gradient_9" gradientUnits="userSpaceOnUse" x1="3569.417" y1="2824.9641" x2="3660.5378" y2="2862.7925"><stop offset="0" stop-color="#5F5F61"/><stop offset="1" stop-color="#9F9FA3"/></linearGradient></defs><path fill="url(#gradient_9)" d="M3657.64 2719.01C3659.27 2725.03 3659.72 2726.49 3663.5 2731.79L3665.35 2731.16L3667.26 2722.63C3670.74 2724.46 3673.3 2726.71 3674.13 2731.06C3675.93 2739.92 3673.41 2748.24 3675.29 2757.24C3684.27 2800.22 3681.04 2831.56 3653.45 2867.02C3643.81 2879.4 3628.06 2908.64 3607.95 2907.03C3593.15 2905.84 3579.72 2929.75 3568.15 2930.74C3569.29 2925.61 3569.91 2927.13 3568.63 2923.11L3564.51 2931.03C3554.7 2931.56 3536.07 2944.21 3528.44 2950.45L3527.22 2949.63L3529.22 2945.52L3528.15 2943.12C3523.83 2945.2 3525.02 2945.05 3520.47 2945.79C3531.12 2922.12 3558.4 2902.68 3574.95 2882.14C3587.93 2866.03 3591.95 2852.48 3600.88 2834.26C3605.99 2823.84 3604.86 2824.41 3613.03 2821.82L3614.77 2818.23C3612.4 2816.02 3610.24 2813.92 3607.95 2811.62C3609.74 2800.96 3610.72 2789.8 3615.13 2780.07C3616.92 2776.12 3612.81 2771.08 3610.55 2767.48L3604.8 2767.24C3609.78 2763.32 3614.68 2760.6 3616.58 2754.86L3611.96 2750.58C3615.3 2747.91 3623.07 2742.95 3626.91 2740.35L3657.64 2719.01Z"/><path fill="#5F6063" d="M3626.91 2740.35L3625.69 2750.51C3623.64 2751.92 3619.25 2755.01 3616.58 2754.86L3611.96 2750.58C3615.3 2747.91 3623.07 2742.95 3626.91 2740.35Z"/><defs><linearGradient id="gradient_10" gradientUnits="userSpaceOnUse" x1="1991.5594" y1="3049.2036" x2="1985.6099" y2="3125.4402"><stop offset="0" stop-color="#4F4E50"/><stop offset="1" stop-color="#7A7979"/></linearGradient></defs><path fill="url(#gradient_10)" d="M1631.98 3063.44C1667.08 3060.24 1703.59 3053.26 1738.95 3049.83C1766.36 3047.18 1793.21 3039.75 1821.24 3039.94L1824.14 3043.87L1826.14 3042.74C1830.66 3040.23 1833.16 3038.06 1838.13 3038.43L1840.72 3043.33C1845.67 3041.51 1843.87 3042.53 1847.64 3038.44C1854.17 3038 1864.17 3040.85 1869.2 3045.11C1884.88 3038.89 1883.17 3035.61 1893.9 3049.77L1897.15 3051.05L1897.48 3045.1L1900.08 3043L1902.72 3044.95L1903.03 3051.08L1904.99 3047.12C1910.79 3047.24 1911.3 3049.32 1917.06 3053.72L1917.43 3047.1L1920.06 3045.08C1927.6 3048.94 1932.08 3051.82 1939.15 3056.54C1941.82 3052.6 1941.15 3054.13 1942.13 3049.58L1944.28 3048.66C1946.66 3051.46 1948.42 3053.69 1950.61 3056.65C1961.48 3056.26 1971.2 3051.6 1978.06 3052.77C1982.14 3058.82 1980.89 3056.79 1981.09 3065.23C1985.9 3060.7 1983.16 3061.54 1988.98 3061.3C1992.69 3065.6 1991.92 3063.64 1993.07 3068.81C1993.1 3063.63 1992.89 3063.1 1991.78 3057.98L1994.19 3056.82L1996.71 3058.63L1997.53 3064.87C2003.12 3067.6 2017.85 3069.42 2024.74 3070.44L2028.79 3063.13L2030.77 3064.55L2029.02 3071.25C2043.9 3071.88 2043.82 3073.51 2056.99 3077.92C2059.27 3073.33 2059.69 3071.87 2061.21 3066.93C2067.57 3065.9 2067.28 3065.88 2073.63 3066.87L2073.81 3071.91C2069.1 3075 2071.82 3074.02 2064.63 3072.74L2065.38 3074.96C2087.65 3084.09 2094.98 3077.32 2116.65 3071.27C2119.89 3070.37 2122.13 3075.72 2123.11 3077.78L2125.05 3076.11C2124.96 3069.01 2123.64 3067.74 2126.94 3063.11C2132.22 3064.54 2134.64 3067.3 2138.8 3070.87C2136.94 3073.92 2137.8 3072.21 2136.28 3076.05C2143.27 3076 2146.43 3076.68 2152.33 3072.96L2152.46 3072.77L2151.06 3073.94C2152.98 3070.95 2153.09 3071.16 2153.45 3067.51C2163.43 3068.23 2165.08 3075.26 2172.83 3075.71C2191.2 3076.58 2207.57 3076.28 2225.86 3078.87C2235.1 3080.18 2251.05 3076.91 2261.3 3077.41C2340.25 3081.29 2421.77 3086.29 2500.53 3088.67L2618.04 3092.94C2638.01 3093.58 2672.94 3092.09 2691.27 3095.03C2807.3 3113.66 2920.89 3128.32 3038.97 3119.22C3077.87 3116.22 3133.47 3104.78 3173.27 3112.76C3020.9 3145.07 2856.56 3127.22 2703.39 3114.49C2696.14 3113.89 2687.7 3109.93 2682.85 3109.63C2592.5 3103.98 2502.71 3098.96 2411.81 3100.45C2310.23 3102.81 2205.51 3101.71 2104.35 3110.38C2025.07 3117.18 1980.68 3119.79 1901.44 3110.18C1852.1 3104.19 1778.76 3098.84 1729.28 3097.71L1730.29 3093.66C1718.9 3092.75 1704.92 3101.47 1697.78 3100.63C1680.12 3098.55 1677.28 3092.55 1658.42 3098.5C1646.11 3102.17 1629.11 3102.08 1617.18 3105.57C1579.19 3116.69 1536.78 3117.25 1499.05 3124.9C1436.59 3137.56 1378.99 3139.57 1315.46 3137.87C1299.9 3137.45 1281.14 3137.54 1266.06 3142.31L1256.09 3145.37C1236.43 3146.99 1218.11 3146.64 1198.43 3145.5C1042.94 3136.52 885.514 3140.46 731.894 3111.13C706.875 3106.35 681.421 3099.7 656.71 3093.57C681.442 3079.55 682.705 3077.68 712.213 3085.5C735.418 3091.66 758.806 3100.57 782.344 3105.49C839.087 3117.34 919.725 3118.69 973.729 3132.26C981.435 3134.03 1034.77 3131.74 1050.82 3132.32C1085.71 3133.62 1120.59 3135.14 1155.46 3136.87C1168.45 3137.56 1207.85 3141.61 1218.79 3139.79C1283.61 3128.95 1345.66 3132.53 1410.92 3130.75C1420.07 3130.5 1446.65 3125.45 1454.19 3122.56C1476.74 3113.91 1565.2 3101.79 1574.77 3079.36C1570.98 3077.08 1561.34 3077.71 1556.62 3077.99L1562.35 3075.67L1565.91 3076.55L1569.12 3074.4C1572.49 3073.13 1629.12 3063.24 1631.98 3063.44Z"/><path fill="#444445" d="M1569.12 3074.4C1572.49 3073.13 1629.12 3063.24 1631.98 3063.44C1642.27 3072.08 1652.93 3070.39 1667.64 3071.4C1643.43 3073.52 1592.19 3077.63 1569.12 3074.4Z"/><defs><linearGradient id="gradient_11" gradientUnits="userSpaceOnUse" x1="3527.9116" y1="2864.489" x2="3570.6335" y2="2889.5752"><stop offset="0" stop-color="#535253"/><stop offset="1" stop-color="#6A696C"/></linearGradient></defs><path fill="url(#gradient_11)" d="M3590.55 2764.49C3595.07 2768.06 3595.97 2770.15 3599.43 2774.6C3601.16 2772.11 3602.95 2769.65 3604.8 2767.24L3610.55 2767.48C3612.81 2771.08 3616.92 2776.12 3615.13 2780.07C3610.72 2789.8 3609.74 2800.96 3607.95 2811.62C3610.24 2813.92 3612.4 2816.02 3614.77 2818.23L3613.03 2821.82C3604.86 2824.41 3605.99 2823.84 3600.88 2834.26C3591.95 2852.48 3587.93 2866.03 3574.95 2882.14C3558.4 2902.68 3531.12 2922.12 3520.47 2945.79C3525.02 2945.05 3523.83 2945.2 3528.15 2943.12L3529.22 2945.52L3527.22 2949.63L3524.92 2951.76C3517.95 2958.31 3511.41 2967.44 3504.28 2973.62C3461.47 3010.75 3409.83 3035.41 3358.05 3057.39C3351.36 3060.22 3349.5 3060.77 3342.66 3061.67C3350.33 3032.82 3369.54 3030.34 3395 3012.04C3396.69 3014.84 3395.63 3013.61 3398.17 3015.72C3418.53 2994.12 3436.3 2989.2 3462.67 2977.64L3465.74 2981.21C3499.01 2934.58 3531.05 2877.48 3570.86 2835.74C3568.15 2834.63 3569.39 2835.25 3567.11 2833.94C3572.19 2822.12 3579.71 2810.58 3572.44 2799.12L3579.16 2793.47L3578.89 2792.53C3574.04 2788.07 3571.69 2784.83 3565.25 2784.05C3559.96 2786.65 3556.59 2788.76 3550.51 2788.95C3552.93 2786.26 3564.19 2780.12 3567.88 2777.94L3584.2 2768.47L3590.55 2764.49Z"/><path fill="#5F6063" d="M3584.2 2768.47C3582.92 2777.45 3584.47 2776.03 3579.51 2782.01C3571.64 2782.43 3575.53 2783.17 3567.88 2777.94L3584.2 2768.47Z"/><path fill="#1A1A1A" d="M1973.44 2907.73C2010.68 2903.32 2056.16 2901.1 2094.24 2898.27C2283.11 2884.22 2473.95 2884.71 2663.24 2886.35C2709.6 2886.75 2755.73 2891.06 2801.37 2891.63L2803.2 2892.49L2804.3 2896.21C2802.33 2903.11 2804.11 2902.08 2800.04 2904.92C2791.15 2900.16 2686.53 2899.86 2668.86 2897.3C2660.67 2896.11 2614.62 2899.6 2610.95 2894.52C2631.63 2891.38 2666.61 2897.15 2688.97 2893.59L2690.02 2891.84C2676.71 2889.02 2655.65 2891.46 2640.7 2890.86C2508.93 2885.54 2375.35 2891.41 2243.62 2894.97C2228.24 2895.39 2182.78 2894.86 2172.01 2899.14C2167.81 2897.27 2167.71 2897.07 2163.06 2896.63C2158.53 2899.34 2121.99 2900.9 2115.19 2900.24C2115.19 2900.24 2115.19 2900.24 2115.19 2900.24L2116 2901.94C2122.36 2906.05 2127.41 2904.78 2135.16 2904.39C2131.69 2908.57 2131.95 2908.31 2127.06 2910.71L2119 2908.58C2115.98 2912.43 2116.58 2920.81 2116.22 2926.72L2115.93 2925.97C2114.85 2928.79 2112.65 2935.41 2111.01 2937.41L2104.88 2945.13L2109.04 2948.48L2108.67 2950.48C2086.97 2953.71 2051.5 2955.73 2029.67 2954.17C1992.97 2947.14 2006.49 2940.72 1991.93 2911.28C1985.95 2908.45 1980.19 2908.49 1973.44 2907.73Z"/><path fill="#282829" d="M2111.01 2937.41C2119.96 2949.09 2113.2 2949.74 2103.94 2956.88C2105.6 2965.34 2106.34 2961.69 2103.35 2968.43C2082.94 2977.29 2084.58 2959.13 2069.04 2956.59C2056.09 2954.48 2036.82 2964.81 2029.67 2954.17C2051.5 2955.73 2086.97 2953.71 2108.67 2950.48L2109.04 2948.48L2104.88 2945.13L2111.01 2937.41Z"/><path fill="#363537" d="M2088.97 2983.51C2097.38 2987.66 2109.74 2989.22 2118.65 2992.7C2127.39 2996.12 2127.63 2993.46 2135.82 2988.73C2143.11 2992.92 2145.97 2995.8 2148.34 3003.98C2145.45 3004.59 2143.44 3007.09 2141.4 3009.06C2132.51 3004.99 2100 3012.5 2082.55 3005.12L2082.13 3001.8C2093.59 2994.2 2094.18 2994.8 2088.97 2983.51Z"/><path fill="#363537" d="M2165.77 2997.34L2168.82 2999.21C2174.48 2998.23 2173.23 2998.59 2179.21 2999.28C2184.99 3004.82 2183.17 3002.6 2185.32 3011.36C2178.83 3011.93 2172.64 3012.11 2167.33 3008.95C2166.78 3005.08 2166.26 3001.21 2165.77 2997.34Z"/><path fill="#363537" d="M2262.83 2989.44C2267.15 2993.33 2271.82 2996.66 2276.91 2999.47L2275.25 3005.22L2273.98 3006.26C2268.92 3006.19 2270.88 3006.41 2265.96 3003.91C2261.46 2994.73 2261.08 2997.51 2262.83 2989.44Z"/><defs><linearGradient id="gradient_12" gradientUnits="userSpaceOnUse" x1="3208.7449" y1="3017.5171" x2="3501.3518" y2="2041.2916"><stop offset="0" stop-color="#A2A2A2"/><stop offset="1" stop-color="#C1C1C3"/></linearGradient></defs><path fill="url(#gradient_12)" d="M3820.57 2130.3C3877.14 2200.94 3858.79 2241.45 3855.82 2325.64C3854.18 2372.16 3853.62 2422.1 3848.4 2468.09C3847.66 2474.97 3846.58 2481.81 3845.16 2488.59C3844.11 2495.69 3834.49 2527.91 3830.91 2533.39C3822.58 2538.72 3822.61 2539.05 3819.64 2550.35C3818.97 2553.99 3819.27 2554.55 3817.63 2557.7C3794.92 2566.27 3812.52 2574.25 3795.62 2588.76L3786.02 2586.68C3775.58 2598.14 3784.56 2601.74 3774.6 2615.26L3757.62 2616.82L3753.2 2618.84C3751.04 2629.33 3752.24 2636.13 3746.93 2644.05L3731.42 2644.95L3724.54 2647.07C3719.49 2656.91 3722.65 2661.91 3715.34 2671.31C3707.05 2675.98 3699.92 2675 3690.34 2674.14L3687.19 2674.12C3686.35 2682.77 3698.93 2718.51 3702.31 2728.9C3734.16 2826.75 3698.49 2882.87 3629.23 2950.06C3629 2942.63 3628.95 2935.22 3628.81 2927.79C3628.46 2907.9 3683.67 2846.02 3687.32 2793.75C3689.22 2766.57 3678.36 2743.96 3675.93 2717.42C3675.87 2716.72 3675.62 2712.75 3675.24 2711.92C3673.65 2708.45 3672.86 2708.76 3669.58 2707.1C3665.03 2712.66 3662.91 2714.41 3657.64 2719.01L3626.91 2740.35C3623.07 2742.95 3615.3 2747.91 3611.96 2750.58L3616.58 2754.86C3614.68 2760.6 3609.78 2763.32 3604.8 2767.24C3602.95 2769.65 3601.16 2772.11 3599.43 2774.6C3595.97 2770.15 3595.07 2768.06 3590.55 2764.49L3584.2 2768.47L3567.88 2777.94C3564.19 2780.12 3552.93 2786.26 3550.51 2788.95C3516.36 2807.28 3479.65 2827.88 3441.34 2842.24C3242.41 2916.81 3021.51 2921.62 2812.2 2902.83C2807.23 2902.39 2806.05 2899.79 2804.3 2896.21L2803.2 2892.49L2801.37 2891.63C2791.96 2846.55 2802.55 2799.52 2815.45 2756.39C2839.82 2674.84 2879.26 2586.05 2964.07 2552.68C3027.81 2527.61 3103.01 2537.46 3170.3 2530.3C3363.34 2511.82 3602.82 2455.55 3748.73 2320.62C3819.24 2255.42 3818.74 2217.93 3820.57 2130.3Z"/><path fill="#9D9D9D" d="M3689.99 2537.78C3696.1 2531.14 3692.54 2532.96 3700.43 2531.07C3704.72 2533.91 3706.54 2535.28 3707.43 2541.58C3711.01 2567.11 3713.24 2649.05 3704.76 2670.36C3699.09 2670.76 3701.14 2670.77 3695.41 2669.05C3692.28 2671.63 3692.84 2670.93 3690.34 2674.14L3687.19 2674.12L3685.64 2672.72C3695.54 2660.02 3687.25 2561.18 3689.99 2537.78Z"/><path fill="#9D9D9D" d="M3731.42 2644.95L3726.35 2643.19C3723.29 2636.77 3724.26 2591.02 3724.93 2580.92C3726.06 2563.8 3721.16 2509.79 3738.74 2504.05C3752.12 2514.91 3738.07 2620.44 3746.93 2644.05L3731.42 2644.95Z"/><path fill="#9D9D9D" d="M3757.62 2616.82C3760.58 2574.86 3758.82 2530.91 3762.22 2488.82C3762.56 2484.57 3765.89 2481.12 3768.8 2478.31L3771.85 2478.94C3784.05 2504.28 3765.38 2587.62 3774.6 2615.26L3757.62 2616.82Z"/><path fill="#9D9D9D" d="M3786.02 2586.68C3795.59 2561.07 3781.92 2469.65 3796.88 2451.77L3801.77 2450.36C3810.13 2463.05 3793.4 2575.17 3795.62 2588.76L3786.02 2586.68Z"/><path fill="#9D9D9D" d="M3830.91 2533.39C3827.51 2526.67 3834.54 2416.53 3837.56 2402.87L3839.31 2403.87C3843.3 2419.05 3839.34 2435.13 3840.85 2451.52C3842.01 2464.08 3843.63 2476.09 3845.16 2488.59C3844.11 2495.69 3834.49 2527.91 3830.91 2533.39Z"/><path fill="#9D9D9D" d="M3817.63 2557.7L3814.12 2557.27L3812.28 2554.91C3811.64 2535.76 3814.16 2430.52 3821.16 2421.84L3823.52 2423.17C3827.9 2457.52 3816.83 2512.43 3819.64 2550.35C3818.97 2553.99 3819.27 2554.55 3817.63 2557.7Z"/><path fill="#8A8A8B" d="M3685.64 2672.72C3681.31 2658.55 3681.78 2549.91 3689.99 2537.78C3687.25 2561.18 3695.54 2660.02 3685.64 2672.72Z"/><path fill="#444445" d="M3611.96 2750.58L3616.58 2754.86C3614.68 2760.6 3609.78 2763.32 3604.8 2767.24C3602.95 2769.65 3601.16 2772.11 3599.43 2774.6C3595.97 2770.15 3595.07 2768.06 3590.55 2764.49L3611.96 2750.58Z"/><defs><linearGradient id="gradient_13" gradientUnits="userSpaceOnUse" x1="1724.8936" y1="2430.8604" x2="1841.4255" y2="2595.6797"><stop offset="0" stop-color="#68696B"/><stop offset="1" stop-color="#979696"/></linearGradient></defs><path fill="url(#gradient_13)" d="M1768.07 2423.01L1765.36 2419.54L1768.22 2417.39C1772.26 2397.84 1796.82 2363.44 1817.28 2388.19C1824.9 2429.87 1836.55 2534.27 1836.2 2577.9C1838.48 2591.79 1838.05 2606.18 1840.08 2617.66C1835.11 2612.54 1823.6 2613.88 1815.61 2613.59C1796.48 2612.51 1814.31 2608.38 1803.99 2607.29C1777.95 2604.54 1742.78 2609.4 1718.12 2602.74C1718.3 2588.39 1719.6 2564.8 1724.75 2551.66C1728.3 2542.59 1734.02 2541.99 1742.3 2538.88C1750.44 2519.64 1753.67 2482 1755.34 2460.22L1743.88 2454.29L1744.9 2448.8C1750.51 2442.34 1756.31 2434.44 1761.59 2427.59C1766.38 2426.37 1764.08 2427.29 1768.07 2423.01Z"/><path fill="#5F6063" d="M1768.07 2423.01L1773.61 2426.15L1773.23 2430.01C1767.27 2433.39 1770.49 2432.31 1762.93 2432.43C1763.6 2437.15 1763.2 2435.58 1765.24 2439.89C1762.4 2445.86 1756.8 2455.09 1755.34 2460.22L1743.88 2454.29L1744.9 2448.8C1750.51 2442.34 1756.31 2434.44 1761.59 2427.59C1766.38 2426.37 1764.08 2427.29 1768.07 2423.01Z"/><path fill="#9D9D9D" d="M1836.2 2577.9C1838.48 2591.79 1838.05 2606.18 1840.08 2617.66C1835.11 2612.54 1823.6 2613.88 1815.61 2613.59C1836.41 2598.65 1835.63 2607.51 1836.2 2577.9Z"/><path fill="#363537" d="M1737.61 2173.68C1745.81 2186.83 1755.17 2205.21 1761.44 2219.48C1765.76 2228.87 1769.99 2238.31 1774.13 2247.79L1794.67 2302.47L1805.44 2338.35C1809.63 2354.9 1814 2371.44 1817.28 2388.19C1796.82 2363.44 1772.26 2397.84 1768.22 2417.39L1765.36 2419.54L1768.07 2423.01C1764.08 2427.29 1766.38 2426.37 1761.59 2427.59C1756.31 2434.44 1750.51 2442.34 1744.9 2448.8L1743.88 2454.29L1734.46 2453.39C1728.19 2442.51 1735.43 2417.5 1737.57 2403.72L1736.95 2390.83C1733.75 2384.12 1726.57 2381.21 1719.86 2377.36C1717.57 2372.97 1717.3 2370.28 1716.22 2365.45C1710.69 2359.14 1700.16 2315.81 1706.44 2307.05C1714.89 2295.26 1712.2 2280.59 1711.27 2266.74C1716.12 2256.25 1716.28 2258.37 1712.07 2249.55C1713.2 2248.62 1714.34 2247.69 1715.48 2246.75C1716.38 2244.09 1717.57 2240.55 1718.43 2237.97C1716.91 2233.93 1716.7 2232.3 1716.05 2228.04C1720.73 2226.69 1718.5 2227.69 1722.25 2223.63C1722.46 2217.15 1717.36 2211.75 1713.38 2205.94C1713.03 2200.21 1712.06 2202.47 1715.1 2198.55L1720.8 2206.55L1724.74 2207.04L1722.16 2207.85L1725.4 2205.71C1730.3 2191.59 1725.14 2187 1737.61 2173.68Z"/><path fill="#363537" d="M1737.61 2173.68C1745.81 2186.83 1755.17 2205.21 1761.44 2219.48C1765.76 2228.87 1769.99 2238.31 1774.13 2247.79L1771.32 2247.44C1767.78 2246.97 1769.15 2247.33 1766.48 2246.36L1763.64 2248.12C1767.31 2259.21 1772.58 2251.95 1770.03 2261.08C1765.4 2258.68 1767.57 2259.62 1763.51 2258.15C1758.58 2261.39 1756.02 2263 1751.44 2266.84L1752.15 2268.88L1759.72 2270.34C1755.38 2273.32 1753.16 2274.49 1748.47 2276.92L1752.85 2280.41L1752.33 2282.27L1747.76 2280.03C1743.85 2284.11 1746.98 2306.46 1740.65 2307.3L1742.96 2304.82L1740.39 2307.26C1731.37 2305.56 1735.66 2305.07 1727.12 2309.13C1734.5 2315.94 1735.38 2323.29 1737.66 2332.84L1741.05 2334.25C1735.8 2341.99 1728.02 2347.74 1721.47 2354.3C1722.79 2352.99 1719.46 2361.51 1716.22 2365.45C1710.69 2359.14 1700.16 2315.81 1706.44 2307.05C1714.89 2295.26 1712.2 2280.59 1711.27 2266.74C1716.12 2256.25 1716.28 2258.37 1712.07 2249.55C1713.2 2248.62 1714.34 2247.69 1715.48 2246.75C1716.38 2244.09 1717.57 2240.55 1718.43 2237.97C1716.91 2233.93 1716.7 2232.3 1716.05 2228.04C1720.73 2226.69 1718.5 2227.69 1722.25 2223.63C1722.46 2217.15 1717.36 2211.75 1713.38 2205.94C1713.03 2200.21 1712.06 2202.47 1715.1 2198.55L1720.8 2206.55L1724.74 2207.04L1722.16 2207.85L1725.4 2205.71C1730.3 2191.59 1725.14 2187 1737.61 2173.68Z"/><path fill="#444445" d="M1748.47 2276.92C1742.88 2276.32 1739.81 2275.61 1736.7 2271.02C1736.49 2262.9 1725.63 2244.66 1728.92 2233.25C1729.78 2230.27 1736.52 2226.7 1739.11 2224.93C1739.62 2220.24 1737.35 2218.75 1734.24 2213.62L1736.38 2210.6C1740.99 2212.68 1738.9 2211.31 1742.08 2215.59C1751.69 2215.09 1752.96 2215.04 1761.44 2219.48C1765.76 2228.87 1769.99 2238.31 1774.13 2247.79L1771.32 2247.44C1767.78 2246.97 1769.15 2247.33 1766.48 2246.36L1763.64 2248.12C1767.31 2259.21 1772.58 2251.95 1770.03 2261.08C1765.4 2258.68 1767.57 2259.62 1763.51 2258.15C1758.58 2261.39 1756.02 2263 1751.44 2266.84L1752.15 2268.88L1759.72 2270.34C1755.38 2273.32 1753.16 2274.49 1748.47 2276.92Z"/><path fill="#444445" d="M1774.94 2333.28L1782.84 2326.94C1790.42 2328.55 1795.49 2334.93 1805.44 2338.35C1809.63 2354.9 1814 2371.44 1817.28 2388.19C1796.82 2363.44 1772.26 2397.84 1768.22 2417.39L1765.36 2419.54L1768.07 2423.01C1764.08 2427.29 1766.38 2426.37 1761.59 2427.59C1756.31 2434.44 1750.51 2442.34 1744.9 2448.8L1743.88 2454.29L1734.46 2453.39L1738.23 2446.36C1737.58 2440.3 1736.56 2437.52 1739.73 2432.42C1744.41 2431.74 1742.03 2431.77 1747.55 2435.31L1745.45 2434.9L1746.84 2436.2L1747.52 2433.22C1743.39 2427.63 1743.76 2429.74 1742.62 2423.63C1747.75 2420.53 1751.42 2417.35 1756.03 2413.61L1759.2 2415.14L1758.72 2411.31C1756.3 2409.51 1754.13 2407.73 1751.94 2405.67C1752.77 2401.48 1752.64 2402.04 1755.36 2398.98C1753.4 2392.42 1751.55 2388.73 1753.1 2382.1C1754.4 2382.75 1755.7 2383.41 1757.01 2384.07L1760.23 2381.38C1755.57 2374.95 1753.28 2373.44 1754.3 2367.05C1760.71 2369.84 1758.25 2370.21 1763.5 2369.14L1760.83 2363.34C1767.56 2358.23 1755.68 2362.01 1766.27 2354.61L1768.52 2350.61C1773.71 2353.26 1771.06 2353.13 1776.52 2351.91L1779.26 2346.7C1774.62 2347.98 1776.91 2347.83 1772.42 2347.32C1771.4 2341.41 1772.19 2341.77 1774.23 2335.44L1774.94 2333.28Z"/><path fill="#5F6063" d="M1751.94 2405.67C1752.77 2401.48 1752.64 2402.04 1755.36 2398.98C1753.4 2392.42 1751.55 2388.73 1753.1 2382.1C1754.4 2382.75 1755.7 2383.41 1757.01 2384.07L1760.23 2381.38C1755.57 2374.95 1753.28 2373.44 1754.3 2367.05C1760.71 2369.84 1758.25 2370.21 1763.5 2369.14L1760.83 2363.34C1767.56 2358.23 1755.68 2362.01 1766.27 2354.61C1770.89 2360.47 1775.58 2366.69 1780.64 2372.11L1780.31 2374.9L1773.75 2371.54C1770.57 2381.23 1776.22 2380.99 1771.96 2386.66L1765.61 2384.07C1760.55 2390.11 1761.75 2395.08 1762.99 2402.36C1758.98 2403.94 1756.14 2404.59 1751.94 2405.67Z"/><path fill="#444445" d="M1752.85 2280.41L1757.32 2277.73L1760.54 2278.62L1759.05 2277.43L1761.9 2278.46L1761 2284.54C1762.49 2286.39 1761.64 2285.44 1763.57 2287.33C1763.6 2297.32 1755.87 2299.96 1747.67 2305.1L1750.22 2306.61C1753.15 2308.37 1754.16 2309.06 1756.78 2311.08C1756.31 2318.66 1754.68 2319.85 1750.18 2325.91L1751.86 2329.24C1754.77 2335.17 1757.4 2340.19 1756.42 2346.48L1750.31 2346.76L1750.35 2348.96L1754.03 2351.3L1752.12 2355.1L1746.55 2356.64C1746.48 2362.19 1746.55 2367.11 1746.71 2372.66L1744.46 2374.55L1739.39 2372.69C1735.88 2378.38 1741.84 2389.63 1741.86 2397.85L1737.57 2403.72L1736.95 2390.83C1733.75 2384.12 1726.57 2381.21 1719.86 2377.36C1717.57 2372.97 1717.3 2370.28 1716.22 2365.45C1719.46 2361.51 1722.79 2352.99 1721.47 2354.3C1728.02 2347.74 1735.8 2341.99 1741.05 2334.25L1737.66 2332.84C1735.38 2323.29 1734.5 2315.94 1727.12 2309.13C1735.66 2305.07 1731.37 2305.56 1740.39 2307.26L1742.96 2304.82L1740.65 2307.3C1746.98 2306.46 1743.85 2284.11 1747.76 2280.03L1752.33 2282.27L1752.85 2280.41Z"/><path fill="#5F6063" d="M1794.67 2302.47L1805.44 2338.35C1795.49 2334.93 1790.42 2328.55 1782.84 2326.94L1774.94 2333.28C1774.06 2326.65 1772.89 2322.8 1775.14 2316.52C1778.87 2312.15 1789.48 2304.84 1794.67 2302.47Z"/><path fill="#9D9D9D" d="M1730.67 1721.71C1739.85 1720.25 1768.98 1735.87 1779.08 1740.32C1807.36 1752.86 1836.26 1763.95 1865.68 1773.54C1906.51 1786.47 1947.53 1795.33 1990.53 1795.79C2028.09 1796.19 2066.71 1790.79 2104.18 1788.34C2108.67 1788.04 2110.24 1789.13 2113.73 1791.24C1950.71 1810.37 1877.09 1796.13 1730.67 1721.71Z"/><path fill="#9D9D9D" d="M3796.51 2017.84C3805.74 2032.49 3809.58 2040.01 3814.88 2056.85C3814.6 2095.21 3811.47 2103.33 3792.03 2135.19C3791.87 2102.22 3792.49 2049.67 3796.51 2017.84Z"/><path fill="#363537" d="M581.45 1974.32L585.468 1980.25C579.535 1997.16 555.519 2010.98 542.798 2024.04C543.153 2024.99 543.508 2025.95 543.863 2026.91C534.198 2030.76 518.173 2057.83 518.726 2066.75L515.461 2068.74C512.843 2067.59 510.48 2066.65 507.982 2065.27L512.847 2046C534.425 2019.3 556.487 1997.58 581.45 1974.32Z"/><path fill="#9D9D9D" d="M392.52 2262.41C397.639 2265.45 397.678 2265.2 401.479 2269.66C403.129 2276.2 403.515 2279.52 404.276 2286.06C399.965 2296.91 399.363 2295.79 387.839 2297.89C385.751 2296.33 386.983 2297.46 384.766 2293.94C385.894 2282.16 389.011 2273.58 392.52 2262.41Z"/><defs><linearGradient id="gradient_14" gradientUnits="userSpaceOnUse" x1="1875.9369" y1="1464.6304" x2="1858.6064" y2="1372.2656"><stop offset="0" stop-color="#2D2C2D"/><stop offset="1" stop-color="#606062"/></linearGradient></defs><path fill="url(#gradient_14)" d="M2046.26 1242.65C2021.48 1272.69 1967.58 1296.94 1956.6 1321.27C1951.33 1332.9 1939.28 1338.41 1935.69 1348.47L1937.2 1352.12C1942.48 1353.71 1943.41 1353.56 1948.99 1353.88C1924.44 1378.97 1880.83 1421.65 1859.41 1446.68L1859.98 1448.66L1860.44 1453.86C1856.2 1468.42 1823.29 1488.45 1815.33 1463.66C1820.12 1452.37 1839.13 1415.94 1846.6 1406.67C1853.94 1399.75 1890.64 1366.91 1891.95 1360.43C1895.39 1360.86 1895.39 1360.61 1898.89 1360.24C1913.82 1350.08 1938.45 1331.57 1948.86 1316.89C1954.91 1308.64 2020.58 1261.22 2033.8 1250.8L2046.26 1242.65Z"/></svg>